<svg width="765" height="1257" viewBox="0 0 765 1257" fill="none" xmlns="http://www.w3.org/2000/svg">
<path d="M764.262 1019H0.0357666L0.0357666 0H764.262V1019Z" fill="#E1EBDA"/>
<circle cx="528.236" cy="648" r="68" fill="#FFFFD3"/>
<circle opacity="0.6" cx="528.236" cy="648" r="104" fill="#FFFFD3"/>
<circle opacity="0.3" cx="528.236" cy="648" r="144" fill="#FFFFD3"/>
<circle opacity="0.3" cx="528.236" cy="648" r="178" fill="#FFFFD3"/>
<path d="M228.438 605.387C228.438 608.479 230.469 611.129 233.207 612.012L232.589 621.729C231.617 622.17 230.999 623.054 230.999 624.202C230.999 624.997 231.352 625.615 231.882 626.145C229.056 630.032 225.523 633.388 221.371 635.95C214.658 640.013 210.241 647.433 210.241 655.825C210.241 658.298 210.595 660.595 211.301 662.803L205.736 662.803C205.736 662.45 205.736 662.008 205.736 661.655C205.736 653.881 199.906 647.522 192.398 646.638L191.427 643.723C191.427 643.723 191.338 643.635 191.162 643.635L190.632 635.597C190.632 635.508 190.632 635.508 190.543 635.508C190.543 635.508 190.543 635.508 190.543 635.597L190.013 643.635C189.837 643.635 189.748 643.723 189.748 643.723L188.777 646.638C181.268 647.522 175.439 653.881 175.439 661.655C175.439 663.245 175.704 664.746 176.145 666.16L170.934 666.16L170.934 668.456L173.319 668.456L173.319 680.116L169.697 680.116L169.432 667.749L170.845 667.749L170.845 665.895L169.432 665.895L169.079 651.32L170.139 651.32L170.139 649.376L169.079 649.376L168.814 636.038L169.962 636.038L169.962 634.978L169.255 634.978L169.255 634.625L168.637 634.625L168.637 629.679L169.255 629.679L169.255 629.237L168.195 629.237C168.284 628.972 168.372 628.619 168.372 628.354C168.372 627.205 167.754 626.234 166.87 625.704C166.34 625.35 165.899 624.909 165.545 624.379C165.545 624.379 165.634 624.29 165.634 624.114C165.634 624.025 165.545 623.849 165.369 623.849L165.369 622.524C165.369 622.612 165.457 622.612 165.457 622.612C165.987 622.612 166.34 622.259 166.429 621.817C166.252 622.082 165.987 622.259 165.722 622.259C165.28 622.259 164.927 621.905 164.927 621.464C164.927 621.11 165.104 620.845 165.369 620.757C164.927 620.757 164.574 621.199 164.574 621.64C164.574 622.082 164.839 622.435 165.192 622.524L165.104 623.849C165.015 623.849 164.927 624.025 164.927 624.114C164.927 624.29 164.927 624.379 165.015 624.379C164.662 624.909 164.22 625.35 163.602 625.704C162.719 626.234 162.189 627.205 162.189 628.354C162.189 628.619 162.189 628.972 162.277 629.237L161.217 629.237L161.217 629.679L161.924 629.679L161.924 634.625L161.217 634.625L161.217 634.978L160.599 634.978L160.599 636.038L161.747 636.038L161.482 649.376L160.422 649.376L160.422 651.32L161.394 651.32L161.129 665.895L159.627 665.895L159.627 667.749L161.129 667.749L160.864 680.116L151.324 680.116L151.324 655.913L151.501 655.913C151.854 655.913 152.207 655.648 152.207 655.206L152.207 654.853C152.207 654.411 151.854 654.146 151.501 654.146L150.529 654.146C150.617 653.881 150.617 653.528 150.617 653.263C150.617 651.408 149.557 649.73 148.056 648.758C147.172 648.228 146.377 647.433 145.671 646.55C145.847 646.462 145.936 646.285 145.936 646.108C145.936 645.843 145.759 645.667 145.494 645.578L145.406 643.105L145.229 643.105L145.052 645.578C144.787 645.667 144.699 645.843 144.699 646.108C144.699 646.285 144.787 646.462 144.876 646.55C144.257 647.433 143.462 648.228 142.491 648.758C140.989 649.73 139.929 651.408 139.929 653.263C139.929 653.528 140.018 653.881 140.018 654.146L139.134 654.146C138.693 654.146 138.339 654.411 138.339 654.853L138.339 655.206C138.339 655.648 138.693 655.913 139.134 655.913L139.223 655.913L139.223 680.116L131.626 680.116L131.626 717.304L318.536 717.304L318.536 680.116L314.119 680.116L314.119 633.565L314.384 633.565C315.003 633.565 315.533 633.035 315.533 632.417L315.533 631.71C315.533 631.092 315.003 630.562 314.384 630.562L312.794 630.562C312.883 630.12 312.883 629.679 312.883 629.237C312.883 625.969 311.204 623.23 308.643 621.64C307.141 620.669 305.816 619.432 304.668 617.93C304.933 617.754 305.021 617.489 305.021 617.224C305.021 616.782 304.756 616.429 304.403 616.252L304.138 612.277L303.873 612.277L303.608 616.252C303.254 616.429 302.989 616.782 302.989 617.224C302.989 617.489 303.078 617.754 303.343 617.93C302.283 619.432 300.87 620.669 299.368 621.64C296.806 623.23 295.128 625.969 295.128 629.237C295.128 629.679 295.216 630.12 295.216 630.562L293.715 630.562C293.008 630.562 292.478 631.092 292.478 631.71L292.478 632.417C292.478 633.035 293.008 633.565 293.715 633.565L293.891 633.565L293.891 680.116L286.913 680.116L286.56 662.185L288.415 662.185L288.415 659.711L286.471 659.711L286.118 640.985L287.443 640.985L287.443 638.512L286.118 638.512L285.765 621.287L287.178 621.287L287.178 619.962L286.383 619.962L286.383 619.432L285.5 619.432L285.5 613.161L286.383 613.161L286.383 612.631L284.97 612.631C285.146 612.189 285.146 611.836 285.146 611.394C285.146 609.981 284.44 608.744 283.292 608.037C282.585 607.596 281.967 607.066 281.525 606.359C281.613 606.271 281.613 606.182 281.613 606.006C281.613 605.829 281.525 605.652 281.348 605.652L281.26 603.974C281.348 603.974 281.437 604.062 281.525 604.062C282.055 604.062 282.585 603.532 282.673 603.002C282.497 603.356 282.143 603.532 281.79 603.532C281.172 603.532 280.73 603.091 280.73 602.561C280.73 602.119 280.995 601.854 281.348 601.677C280.73 601.766 280.288 602.207 280.288 602.826C280.288 603.356 280.642 603.797 281.083 603.974L280.995 605.652C280.818 605.652 280.73 605.829 280.73 606.006C280.73 606.182 280.818 606.271 280.907 606.359C280.377 607.066 279.758 607.596 279.052 608.037C277.992 608.744 277.197 609.981 277.197 611.394C277.197 611.836 277.285 612.189 277.373 612.631L276.048 612.631L276.048 613.161L276.843 613.161L276.843 619.432L276.048 619.432L276.048 619.962L275.165 619.962L275.165 621.287L276.578 621.287L276.313 638.512L274.988 638.512L274.988 640.985L276.225 640.985L275.872 659.711L274.017 659.711L274.017 662.185L275.872 662.185L275.518 680.116L270.572 680.116L270.572 651.585L270.748 651.585C271.102 651.585 271.367 651.32 271.367 650.966L271.367 650.525C271.367 650.171 271.102 649.906 270.748 649.906L269.865 649.906C269.865 649.641 269.953 649.376 269.953 649.2C269.953 647.433 268.982 645.843 267.568 644.96C266.773 644.43 265.978 643.812 265.448 642.928C265.537 642.84 265.625 642.752 265.625 642.575C265.625 642.31 265.449 642.133 265.272 642.045L265.095 639.837L264.919 639.837L264.83 642.045C264.565 642.133 264.477 642.31 264.477 642.575C264.477 642.752 264.565 642.84 264.654 642.928C264.035 643.812 263.329 644.43 262.445 644.96C261.032 645.843 260.149 647.433 260.149 649.2C260.149 649.376 260.149 649.641 260.149 649.906L259.354 649.906C259 649.906 258.647 650.171 258.647 650.525L258.647 650.966C258.647 651.32 259 651.585 259.354 651.585L259.442 651.585L259.442 662.803L256.085 662.803C256.792 660.595 257.145 658.298 257.145 655.825C257.145 647.433 252.729 640.013 246.016 635.95C241.952 633.388 238.331 630.032 235.504 626.145C236.034 625.615 236.387 624.997 236.387 624.202C236.387 623.054 235.769 622.17 234.797 621.729L234.179 612.277C234.532 612.366 234.974 612.366 235.416 612.366C238.949 612.366 241.952 609.716 242.394 606.271C241.422 608.302 239.391 609.627 237.094 609.627C233.826 609.627 231.176 606.977 231.176 603.709C231.176 601.412 232.501 599.381 234.532 598.409C231.087 598.939 228.438 601.854 228.438 605.387ZM283.91 614.309C283.91 614.132 284.086 613.955 284.263 613.955L284.44 613.955C284.616 613.955 284.793 614.132 284.793 614.309L284.793 619.432L283.91 619.432L283.91 614.309ZM282.32 614.309C282.32 614.132 282.497 613.955 282.673 613.955L282.85 613.955C283.027 613.955 283.203 614.132 283.203 614.309L283.203 619.432L282.32 619.432L282.32 614.309ZM280.73 614.309C280.73 614.132 280.907 613.955 281.083 613.955L281.26 613.955C281.437 613.955 281.613 614.132 281.613 614.309L281.613 619.432L280.73 619.432L280.73 614.309ZM279.14 614.309C279.14 614.132 279.317 613.955 279.493 613.955L279.67 613.955C279.847 613.955 280.023 614.132 280.023 614.309L280.023 619.432L279.14 619.432L279.14 614.309ZM277.55 614.309C277.55 614.132 277.727 613.955 277.903 613.955L278.08 613.955C278.257 613.955 278.433 614.132 278.433 614.309L278.433 619.432L277.55 619.432L277.55 614.309ZM167.4 630.562C167.4 630.474 167.489 630.297 167.665 630.297L167.754 630.297C167.93 630.297 168.019 630.474 168.019 630.562L168.019 634.625L167.4 634.625L167.4 630.562ZM166.164 630.562C166.164 630.474 166.252 630.297 166.429 630.297L166.517 630.297C166.694 630.297 166.782 630.474 166.782 630.562L166.782 634.625L166.164 634.625L166.164 630.562ZM164.927 630.562C164.927 630.474 165.015 630.297 165.192 630.297L165.28 630.297C165.457 630.297 165.545 630.474 165.545 630.562L165.545 634.625L164.927 634.625L164.927 630.562ZM163.69 630.562C163.69 630.474 163.779 630.297 163.955 630.297L164.044 630.297C164.22 630.297 164.309 630.474 164.309 630.562L164.309 634.625L163.69 634.625L163.69 630.562ZM162.454 630.562C162.454 630.474 162.542 630.297 162.719 630.297L162.895 630.297C162.984 630.297 163.16 630.474 163.16 630.562L163.16 634.625L162.454 634.625L162.454 630.562ZM299.898 640.19C299.898 637.628 301.664 635.42 304.049 634.802C306.434 635.42 308.113 637.628 308.113 640.19L308.113 650.436L299.898 650.436L299.898 640.19ZM309.526 641.162C309.526 638.865 310.233 636.922 311.204 636.303C312.176 636.922 312.794 638.865 312.794 641.162L312.794 650.436L309.526 650.436L309.526 641.162ZM295.216 641.162C295.216 638.865 295.923 636.922 296.806 636.303C297.778 636.922 298.485 638.865 298.485 641.162L298.485 650.436L295.216 650.436L295.216 641.162ZM262.71 655.206C262.71 653.793 263.682 652.645 265.007 652.203C266.332 652.645 267.303 653.793 267.303 655.206L267.303 660.86L262.71 660.86L262.71 655.206ZM268.098 655.736C268.098 654.5 268.452 653.351 268.982 653.086C269.512 653.351 269.865 654.5 269.865 655.736L269.865 660.86L268.098 660.86L268.098 655.736ZM260.149 655.736C260.149 654.5 260.59 653.351 261.032 653.086C261.562 653.351 262.004 654.5 262.004 655.736L262.004 660.86L260.149 660.86L260.149 655.736ZM142.844 659.888C142.844 658.386 143.816 657.061 145.317 656.62C146.731 657.061 147.791 658.386 147.791 659.888L147.791 666.071L142.844 666.071L142.844 659.888ZM148.586 660.506C148.586 659.093 149.027 657.945 149.557 657.503C150.176 657.945 150.617 659.093 150.617 660.506L150.617 666.071L148.586 666.071L148.586 660.506ZM140.018 660.506C140.018 659.093 140.459 657.945 140.989 657.503C141.519 657.945 141.961 659.093 141.961 660.506L141.961 666.071L140.018 666.071L140.018 660.506Z" fill="url(#paint0_linear_3_139)"/>
<g opacity="0.3">
<path d="M466.78 587.205C466.78 591.085 469.29 594.28 472.714 595.421L471.915 607.29C470.774 607.746 469.975 609.001 469.975 610.257C469.975 611.284 470.317 612.083 471.002 612.767C467.578 617.56 463.242 621.554 458.107 624.75C450.004 629.771 444.526 638.786 444.526 649.171C444.526 652.138 444.983 654.991 445.782 657.616L438.935 657.616C438.935 657.159 438.935 656.817 438.935 656.361C438.935 646.775 431.859 638.9 422.616 637.873L421.36 634.222C421.36 634.222 421.246 634.222 421.132 634.222L420.447 624.293C420.447 624.293 420.447 624.179 420.333 624.179L420.333 624.293L419.649 634.222C419.535 634.222 419.42 634.222 419.42 634.222L418.165 637.873C408.922 638.9 401.846 646.775 401.846 656.361C401.846 658.186 402.074 660.012 402.645 661.838L396.254 661.838L396.254 664.577L399.221 664.577L399.221 678.842L392.603 678.842L392.146 658.985L393.972 658.985L393.972 656.703L392.146 656.703L391.804 638.786L393.059 638.786L393.059 636.39L391.804 636.39L391.461 620.071L392.831 620.071L392.831 618.701L392.032 618.701L392.032 618.245L391.233 618.245L391.233 612.311L392.032 612.311L392.032 611.74L390.663 611.74C390.777 611.398 390.891 610.941 390.891 610.599C390.891 609.23 390.206 607.974 389.065 607.404C388.38 606.947 387.81 606.377 387.353 605.806C387.467 605.692 387.467 605.578 387.467 605.464C387.467 605.236 387.353 605.121 387.239 605.007L387.125 603.524C387.239 603.524 387.239 603.524 387.353 603.524C387.924 603.524 388.38 603.067 388.494 602.497C388.38 602.839 388.038 603.067 387.581 603.067C387.125 603.067 386.668 602.611 386.668 602.154C386.668 601.698 386.897 601.47 387.239 601.241C386.668 601.355 386.212 601.812 386.212 602.383C386.212 602.839 386.554 603.295 387.011 603.41L386.897 605.007C386.783 605.121 386.668 605.236 386.668 605.464C386.668 605.578 386.668 605.692 386.783 605.806C386.326 606.377 385.755 606.947 385.071 607.404C383.93 607.974 383.245 609.23 383.245 610.599C383.245 610.941 383.359 611.398 383.473 611.74L382.104 611.74L382.104 612.311L382.903 612.311L382.903 618.245L382.104 618.245L382.104 618.701L381.305 618.701L381.305 620.071L382.674 620.071L382.446 636.39L381.077 636.39L381.077 638.786L382.332 638.786L381.99 656.703L380.164 656.703L380.164 658.985L381.99 658.985L381.533 678.842L378.224 678.842L378.224 643.351L378.452 643.351C379.137 643.351 379.707 642.78 379.707 642.096L379.707 641.411C379.707 640.726 379.137 640.156 378.452 640.156L376.854 640.156C376.854 639.699 376.968 639.243 376.968 638.786C376.968 635.477 375.257 632.624 372.632 631.026C371.034 629.999 369.665 628.744 368.524 627.26C368.752 627.032 368.866 626.804 368.866 626.462C368.866 626.005 368.638 625.663 368.181 625.434L367.953 621.326L367.611 621.326L367.382 625.434C367.04 625.663 366.812 626.005 366.812 626.462C366.812 626.804 366.926 627.032 367.04 627.26C366.013 628.744 364.644 629.999 363.046 631.026C360.421 632.624 358.709 635.477 358.709 638.786C358.709 639.243 358.709 639.699 358.824 640.156L357.112 640.156C356.541 640.156 355.971 640.726 355.971 641.411L355.971 642.096C355.971 642.78 356.541 643.351 357.112 643.351L357.454 643.351L357.454 678.842L350.721 678.842L350.721 788.053L666.601 788.053L666.601 679.755L667.514 679.755L667.514 678.842L665.346 678.842C665.574 678.271 665.688 677.701 665.688 677.016C665.688 674.277 663.976 671.995 661.466 671.082L661.58 670.968C661.58 670.055 660.895 669.256 660.096 669.028L659.754 668.001C659.868 668.001 659.868 667.887 659.868 667.772C659.868 667.544 659.754 667.43 659.64 667.316L659.412 664.349L659.297 664.349L659.183 667.316C658.955 667.43 658.841 667.544 658.841 667.772C658.841 667.887 658.841 668.001 658.955 668.001L658.613 669.028C657.814 669.256 657.243 670.055 657.243 670.968L657.243 671.082C654.847 671.995 653.021 674.277 653.021 677.016C653.021 677.701 653.249 678.271 653.363 678.842L651.195 678.842L650.967 678.842L650.967 667.887L651.081 667.887C651.423 667.887 651.652 667.658 651.652 667.43L651.652 667.202C651.652 666.859 651.423 666.631 651.081 666.631L650.396 666.631C650.51 666.517 650.51 666.289 650.51 666.061C650.51 664.805 649.826 663.55 648.684 662.979C648.114 662.523 647.543 662.067 647.087 661.382C647.201 661.268 647.201 661.154 647.201 661.039C647.201 660.925 647.087 660.811 646.973 660.697L646.859 658.985L646.744 658.985L646.63 660.697C646.402 660.811 646.288 660.925 646.288 661.039C646.288 661.154 646.402 661.268 646.516 661.382C646.06 662.067 645.489 662.523 644.804 662.979C643.777 663.55 643.093 664.805 643.093 666.061C643.093 666.289 643.093 666.517 643.093 666.631L642.408 666.631C642.18 666.631 641.951 666.859 641.951 667.202L641.951 667.43C641.951 667.658 642.18 667.887 642.408 667.887L642.522 667.887L642.522 674.962L640.924 674.962C641.381 674.163 641.609 673.25 641.609 672.451C641.609 669.37 638.87 666.745 634.648 665.262C632.023 664.235 629.741 662.979 627.915 661.496C627.915 661.382 628.029 661.154 628.029 661.039C628.029 660.583 627.801 660.355 627.458 660.126L627.23 656.361L626.888 656.361L626.66 660.126C626.317 660.355 626.089 660.583 626.089 661.039C626.089 661.154 626.089 661.382 626.203 661.496C624.377 662.979 622.095 664.235 619.356 665.262C615.248 666.745 612.509 669.37 612.509 672.451C612.509 672.908 612.623 673.364 612.737 673.935L611.596 673.935C611.938 672.68 612.167 671.424 612.167 670.055C612.167 663.322 607.031 657.73 600.526 656.931L599.728 654.421C599.728 654.421 599.614 654.421 599.499 654.421L599.043 647.345C598.929 647.345 598.929 647.345 598.929 647.345L598.472 654.421C598.358 654.421 598.358 654.421 598.358 654.421L597.445 656.931C592.538 657.502 588.544 660.811 586.832 665.262L586.604 657.844L587.289 657.844L587.289 656.589L586.604 656.589L586.49 647.231L587.175 647.231L587.175 646.432L586.718 646.432L586.718 646.204L586.262 646.204L586.262 642.78L586.718 642.78L586.718 642.438L586.033 642.438C586.033 642.21 586.148 642.096 586.148 641.868C586.148 641.069 585.691 640.384 585.12 639.928C584.664 639.699 584.322 639.471 584.093 639.129C584.208 639.015 584.208 639.015 584.208 638.9C584.208 638.786 584.093 638.672 584.093 638.672L583.979 637.759L584.093 637.759C584.436 637.759 584.664 637.531 584.778 637.189C584.664 637.417 584.436 637.531 584.208 637.531C583.979 637.531 583.751 637.303 583.751 636.96C583.751 636.732 583.865 636.618 583.979 636.504C583.751 636.504 583.409 636.846 583.409 637.189C583.409 637.417 583.637 637.645 583.865 637.759L583.865 638.672C583.751 638.672 583.751 638.786 583.751 638.9C583.751 639.015 583.751 639.015 583.751 639.129C583.523 639.471 583.18 639.699 582.838 639.928C582.153 640.384 581.811 641.069 581.811 641.868C581.811 642.096 581.811 642.21 581.925 642.438L581.126 642.438L581.126 642.78L581.583 642.78L581.583 646.204L581.126 646.204L581.126 646.432L580.67 646.432L580.67 647.231L581.469 647.231L581.24 656.589L580.556 656.589L580.556 657.844L581.24 657.844L581.012 668.001L579.985 668.001L579.985 669.37L581.012 669.37L580.898 673.935L577.36 673.935C578.502 671.881 579.186 669.598 579.186 667.316C579.186 659.214 571.769 652.138 560.699 648.258C553.51 645.633 547.347 642.21 542.668 638.216C542.783 637.873 542.897 637.417 542.897 636.96C542.897 635.933 542.326 635.02 541.413 634.564L540.728 624.407L539.93 624.407L539.359 634.564C538.446 635.02 537.761 635.933 537.761 636.96C537.761 637.417 537.875 637.873 538.104 638.216C533.311 642.21 527.148 645.633 519.959 648.258C517.905 648.943 515.965 649.742 514.253 650.769L514.253 621.212L514.367 621.212C514.823 621.212 515.166 620.87 515.166 620.413L515.166 619.957C515.166 619.5 514.823 619.158 514.367 619.158L513.34 619.158C513.34 618.93 513.34 618.587 513.34 618.245C513.34 616.077 512.199 614.251 510.487 613.224C509.46 612.539 508.547 611.626 507.862 610.713C507.976 610.599 508.09 610.371 508.09 610.143C508.09 609.914 507.862 609.686 507.634 609.572L507.52 606.833L507.292 606.833L507.063 609.572C506.835 609.686 506.721 609.914 506.721 610.143C506.721 610.371 506.721 610.599 506.949 610.713C506.15 611.74 505.238 612.539 504.21 613.224C502.499 614.251 501.357 616.077 501.357 618.245C501.357 618.587 501.357 618.93 501.472 619.158L500.445 619.158C499.988 619.158 499.646 619.5 499.646 619.957L499.646 620.413C499.646 620.87 499.988 621.212 500.445 621.212L500.559 621.212L500.559 640.042C498.39 633.537 494.054 628.173 488.348 624.75C483.327 621.554 478.99 617.446 475.567 612.767C476.137 612.083 476.594 611.284 476.594 610.257C476.594 609.001 475.795 607.746 474.654 607.29L473.855 595.764C474.311 595.764 474.882 595.878 475.338 595.878C479.789 595.878 483.327 592.568 483.897 588.346C482.756 590.742 480.246 592.454 477.393 592.454C473.398 592.454 470.203 589.259 470.203 585.265C470.203 582.412 471.801 579.901 474.311 578.76C470.089 579.331 466.78 582.868 466.78 587.205ZM389.635 613.338C389.635 613.224 389.864 612.996 389.978 612.996L390.206 612.996C390.32 612.996 390.434 613.224 390.434 613.338L390.434 618.245L389.635 618.245L389.635 613.338ZM388.152 613.338C388.152 613.224 388.266 612.996 388.494 612.996L388.608 612.996C388.837 612.996 388.951 613.224 388.951 613.338L388.951 618.245L388.152 618.245L388.152 613.338ZM386.668 613.338C386.668 613.224 386.783 612.996 387.011 612.996L387.125 612.996C387.353 612.996 387.467 613.224 387.467 613.338L387.467 618.245L386.668 618.245L386.668 613.338ZM385.185 613.338C385.185 613.224 385.299 612.996 385.527 612.996L385.641 612.996C385.755 612.996 385.984 613.224 385.984 613.338L385.984 618.245L385.185 618.245L385.185 613.338ZM383.587 613.338C383.587 613.224 383.815 612.996 383.93 612.996L384.158 612.996C384.272 612.996 384.386 613.224 384.386 613.338L384.386 618.245L383.587 618.245L383.587 613.338ZM504.553 625.777C504.553 623.951 505.808 622.467 507.406 622.011C509.003 622.467 510.145 623.951 510.145 625.777L510.145 632.624L504.553 632.624L504.553 625.777ZM511.172 626.347C511.172 624.864 511.628 623.494 512.199 623.038C512.883 623.494 513.34 624.864 513.34 626.347L513.34 632.624L511.172 632.624L511.172 626.347ZM501.472 626.347C501.472 624.864 501.928 623.494 502.499 623.038C503.183 623.494 503.64 624.864 503.64 626.347L503.64 632.624L501.472 632.624L501.472 626.347ZM585.463 643.351C585.463 643.351 585.463 643.237 585.577 643.237L585.691 643.237C585.805 643.237 585.919 643.351 585.919 643.351L585.919 646.204L585.463 646.204L585.463 643.351ZM584.55 643.351C584.55 643.351 584.664 643.237 584.778 643.237L584.892 643.237C585.006 643.237 585.006 643.351 585.006 643.351L585.006 646.204L584.55 646.204L584.55 643.351ZM583.751 643.351C583.751 643.351 583.751 643.237 583.865 643.237L583.979 643.237C584.093 643.237 584.208 643.351 584.208 643.351L584.208 646.204L583.751 646.204L583.751 643.351ZM582.838 643.351C582.838 643.351 582.952 643.237 583.066 643.237L583.18 643.237L583.295 643.351L583.295 646.204L582.838 646.204L582.838 643.351ZM582.039 643.351C582.039 643.351 582.039 643.237 582.153 643.237L582.268 643.237C582.382 643.237 582.496 643.351 582.496 643.351L582.496 646.204L582.039 646.204L582.039 643.351ZM363.502 650.198C363.502 647.459 365.328 645.291 367.839 644.606C370.235 645.291 372.061 647.459 372.061 650.198L372.061 660.697L363.502 660.697L363.502 650.198ZM373.545 651.225C373.545 648.715 374.23 646.775 375.257 646.09C376.17 646.775 376.854 648.715 376.854 651.225L376.854 660.697L373.545 660.697L373.545 651.225ZM358.709 651.225C358.709 648.715 359.508 646.775 360.421 646.09C361.448 646.775 362.133 648.715 362.133 651.225L362.133 660.697L358.709 660.697L358.709 651.225ZM645.033 670.74C645.033 669.598 645.717 668.685 646.744 668.457C647.771 668.685 648.456 669.598 648.456 670.74L648.456 674.962L645.831 674.962L645.033 674.962L645.033 670.74ZM649.141 671.082C649.141 670.169 649.369 669.256 649.826 669.028C650.168 669.256 650.51 670.169 650.51 671.082L650.51 674.962L649.141 674.962L649.141 671.082ZM643.093 671.082C643.093 670.169 643.435 669.256 643.777 669.028C644.12 669.256 644.462 670.169 644.462 671.082L644.462 674.962L643.093 674.962L643.093 671.082Z" fill="#AD9ACC"/>
</g>
<path d="M603.615 606.69C603.615 611.688 606.947 616.352 611.611 617.685L610.612 634.01C608.946 634.677 607.946 636.342 607.946 638.342C607.946 639.674 608.613 640.674 609.279 641.673C604.615 648.003 598.618 653.667 591.621 657.999C580.293 664.995 572.964 677.322 572.964 691.649C572.964 695.647 573.63 699.645 574.629 703.31L565.301 703.31C565.301 702.643 565.301 701.977 565.301 701.311C565.301 688.317 555.639 677.656 542.645 675.99L541.312 671.325C541.312 670.992 540.979 670.992 540.979 670.992L539.98 657.332C539.647 657.332 539.647 657.332 539.647 657.332L538.98 670.992C538.647 670.992 538.647 670.992 538.314 671.325L536.981 675.99C523.988 677.656 514.326 688.317 514.326 701.311C514.326 703.976 514.659 706.641 515.325 708.974L506.663 708.974L506.663 712.972L510.661 712.972L510.661 732.629L504.664 732.629L504.331 711.639L506.663 711.639L506.663 708.64L503.997 708.64L503.664 683.986L505.33 683.986L505.33 680.654L503.664 680.654L502.998 658.332L504.997 658.332L504.997 656.333L503.997 656.333L503.997 655.666L502.665 655.666L502.665 647.67L503.997 647.67L503.997 646.671L501.998 646.671C502.332 646.338 502.332 645.671 502.332 645.338C502.332 643.339 501.332 641.673 499.999 640.674C499 640.341 498.334 639.341 497.667 638.675L497.667 638.341C497.667 638.008 497.667 637.675 497.334 637.675L497.334 635.676C497.334 635.676 497.334 635.676 497.667 635.676C498.334 635.676 499 635.01 499 634.343C499 634.677 498.333 635.01 498 635.01C497.334 635.01 496.668 634.343 496.668 633.677C496.668 633.011 497.001 632.678 497.334 632.344C496.668 632.678 496.001 633.344 496.001 634.01C496.001 634.677 496.334 635.343 497.001 635.343L497.001 637.675C496.668 637.675 496.668 638.008 496.668 638.341L496.668 638.675C496.001 639.674 495.335 640.341 494.335 640.674C493.003 641.673 492.003 643.339 492.003 645.338C492.003 645.671 492.003 646.338 492.003 646.671L490.337 646.671L490.337 647.67L491.337 647.67L491.337 655.666L490.337 655.666L490.337 656.333L489.338 656.333L489.338 658.332L491.004 658.332L490.671 680.654L489.005 680.654L489.005 683.986L490.671 683.986L490.337 708.64L487.672 708.64L487.672 711.639L490.004 711.639L489.671 732.629L473.679 732.629L473.679 691.649L474.012 691.649C474.678 691.649 475.012 691.315 475.012 690.649L475.012 689.983C475.012 689.316 474.678 688.65 474.012 688.65L472.346 688.65C472.346 688.317 472.346 687.651 472.346 687.317C472.346 683.986 470.68 681.32 468.348 679.655C466.682 678.655 465.35 677.322 464.35 675.99C464.35 675.657 464.683 675.657 464.683 675.323C464.683 674.657 464.35 674.324 464.017 674.324L463.684 670.326L463.351 670.326L463.018 674.324C462.684 674.324 462.351 674.657 462.351 675.323C462.351 675.657 462.684 675.657 462.684 675.99C461.685 677.322 460.352 678.655 458.686 679.655C456.354 681.32 454.688 683.986 454.688 687.317C454.688 687.651 454.688 688.317 454.688 688.65L453.022 688.65C452.356 688.65 452.023 689.316 452.023 689.983L452.023 690.649C452.023 691.315 452.356 691.649 453.022 691.649L453.356 691.649L453.356 732.629L440.695 732.629L440.695 795.264L755.207 795.265L755.207 732.629L747.878 732.629L747.878 654L748.544 654C749.544 654 750.543 653.334 750.543 652.001L750.543 651.002C750.543 650.002 749.544 649.003 748.544 649.003L745.879 649.003C745.879 648.337 745.879 647.337 745.879 646.671C745.879 641.34 743.213 636.676 738.882 634.01C736.217 632.344 733.885 630.345 732.219 627.68C732.552 627.347 732.552 627.014 732.552 626.681C732.552 625.681 732.219 625.348 731.552 625.015L731.219 618.018L730.553 618.018L730.22 625.015C729.553 625.348 729.22 625.681 729.22 626.681C729.22 627.014 729.553 627.347 729.887 627.68C727.888 630.345 725.888 632.344 723.223 634.01C718.892 636.676 715.893 641.34 715.893 646.671C715.893 647.337 716.227 648.337 716.227 649.003L713.561 649.003C712.562 649.003 711.562 650.002 711.562 651.002L711.562 652.001C711.562 653.334 712.562 654 713.561 654L713.894 654L713.894 732.629L702.233 732.629L701.567 702.31L704.566 702.31L704.566 698.312L701.567 698.312L700.901 666.661L702.9 666.661L702.9 662.33L700.901 662.33L700.234 633.344L702.567 633.344L702.567 631.012L701.234 631.012L701.234 630.345L699.901 630.345L699.901 619.684L701.234 619.684L701.234 618.684L698.902 618.684C699.235 618.018 699.235 617.352 699.235 616.685C699.235 614.353 697.902 612.354 695.903 611.022C694.904 610.355 693.904 609.356 692.905 608.356C693.238 608.023 693.238 608.023 693.238 607.69C693.238 607.357 693.238 607.024 692.905 607.024L692.572 604.358C692.905 604.358 692.905 604.358 692.905 604.358C693.904 604.358 694.904 603.692 694.904 602.692C694.571 603.026 694.237 603.359 693.571 603.359C692.572 603.359 691.905 602.692 691.905 601.693C691.905 601.026 692.238 600.693 692.572 600.36C691.905 600.36 690.906 601.36 690.906 602.359C690.906 603.026 691.572 604.025 692.238 604.025L692.238 607.024C691.905 607.024 691.572 607.357 691.572 607.69C691.572 608.023 691.905 608.023 691.905 608.356C691.239 609.356 690.239 610.355 688.907 611.022C686.908 612.354 685.908 614.353 685.908 616.685C685.908 617.352 685.908 618.018 685.908 618.684L683.909 618.684L683.909 619.684L685.242 619.684L685.242 630.345L683.909 630.345L683.909 631.012L682.243 631.012L682.243 633.344L684.909 633.344L684.242 662.33L681.91 662.33L681.91 666.661L684.242 666.661L683.576 698.312L680.244 698.312L680.244 702.31L683.576 702.31L682.91 732.629L674.58 732.629L674.58 684.319L674.913 684.319C675.58 684.319 675.913 683.986 675.913 683.319L675.913 682.653C675.913 681.987 675.58 681.654 674.913 681.654L673.248 681.654C673.581 681.32 673.581 680.654 673.581 680.321C673.581 677.322 671.915 674.657 669.583 673.324C668.25 672.325 666.917 671.325 665.918 669.993C666.251 669.659 666.251 669.326 666.251 669.326C666.251 668.993 665.918 668.66 665.585 668.327L665.252 664.662L664.918 668.327C664.585 668.66 664.252 668.993 664.252 669.326C664.252 669.326 664.252 669.659 664.585 669.993C663.586 671.325 662.253 672.325 660.92 673.324C658.588 674.657 656.922 677.322 656.922 680.321C656.922 680.654 656.922 681.32 657.255 681.654L655.59 681.654C654.923 681.654 654.59 681.987 654.59 682.653L654.59 683.319C654.59 683.986 654.923 684.319 655.59 684.319L655.923 684.319L655.923 703.31L650.259 703.31C651.258 699.645 651.925 695.647 651.925 691.649C651.925 677.322 644.595 664.995 633.267 657.999C626.271 653.667 620.274 648.003 615.609 641.673C616.609 640.674 616.942 639.674 616.942 638.342C616.942 636.342 615.942 634.677 614.277 634.01L613.277 618.351C613.943 618.351 614.61 618.351 615.276 618.351C621.273 618.351 626.271 614.02 626.937 608.023C625.604 611.355 621.939 613.687 618.275 613.687C612.611 613.687 608.28 609.356 608.28 603.692C608.28 600.027 610.612 596.362 613.943 595.029C607.946 595.696 603.615 600.693 603.615 606.69ZM697.236 621.683C697.236 621.35 697.236 621.017 697.569 621.017L697.902 621.017C698.235 621.017 698.569 621.35 698.569 621.683L698.569 630.345L697.236 630.345L697.236 621.683ZM694.571 621.683C694.571 621.35 694.571 621.017 694.904 621.017L695.237 621.017C695.57 621.017 695.903 621.35 695.903 621.683L695.903 630.345L694.571 630.345L694.571 621.683ZM691.905 621.683C691.905 621.35 691.905 621.017 692.238 621.017L692.572 621.017C692.905 621.017 693.238 621.35 693.238 621.683L693.238 630.345L691.905 630.345L691.905 621.683ZM689.24 621.683C689.24 621.35 689.24 621.017 689.573 621.017L689.906 621.017C690.239 621.017 690.572 621.35 690.572 621.683L690.572 630.345L689.24 630.345L689.24 621.683ZM686.574 621.683C686.574 621.35 686.574 621.017 686.908 621.017L687.241 621.017C687.574 621.017 687.907 621.35 687.907 621.683L687.907 630.345L686.574 630.345L686.574 621.683ZM500.666 649.003C500.666 648.67 500.999 648.67 501.332 648.67C501.665 648.67 501.998 648.67 501.998 649.003L501.998 655.666L500.666 655.666L500.666 649.003ZM498.667 649.003C498.667 648.67 499 648.67 499 648.67L499.333 648.67C499.666 648.67 499.666 648.67 499.666 649.003L499.666 655.666L498.667 655.666L498.667 649.003ZM496.668 649.003C496.668 648.67 496.668 648.67 497.001 648.67L497.334 648.67C497.334 648.67 497.667 648.67 497.667 649.003L497.667 655.666L496.668 655.666L496.668 649.003ZM494.669 649.003C494.669 648.67 494.669 648.67 495.002 648.67L495.335 648.67C495.335 648.67 495.668 648.67 495.668 649.003L495.668 655.666L494.669 655.666L494.669 649.003ZM492.336 649.003C492.336 648.67 492.67 648.67 493.003 648.67C493.336 648.67 493.669 648.67 493.669 649.003L493.669 655.666L492.336 655.666L492.336 649.003ZM723.889 665.328C723.889 660.997 726.888 657.332 730.886 656C734.884 657.332 737.883 660.997 737.883 665.328L737.883 682.653L723.889 682.653L723.889 665.328ZM740.215 666.994C740.215 662.996 741.547 659.664 743.213 658.665C744.546 659.664 745.879 662.996 745.879 666.994L745.879 682.653L740.215 682.653L740.215 666.994ZM716.227 666.994C716.227 662.996 717.226 659.664 718.892 658.665C720.558 659.664 721.557 662.996 721.557 666.994L721.557 682.653L716.227 682.653L716.227 666.994ZM661.254 690.649C661.254 688.317 662.919 686.318 665.252 685.652C667.584 686.318 669.25 688.317 669.25 690.649L669.25 699.978L661.254 699.978L661.254 690.649ZM670.249 691.649C670.249 689.316 670.915 687.651 671.915 686.984C672.914 687.651 673.581 689.316 673.581 691.649L673.581 699.978L670.249 699.978L670.249 691.649ZM656.922 691.649C656.922 689.316 657.589 687.651 658.588 686.984C659.588 687.651 660.254 689.316 660.254 691.649L660.254 699.978L656.922 699.978L656.922 691.649ZM459.353 698.312C459.353 695.98 461.018 693.648 463.351 692.981C466.016 693.648 467.682 695.98 467.682 698.312L467.682 708.64L459.353 708.64L459.353 698.312ZM469.015 699.312C469.015 696.979 469.681 694.98 470.68 694.647C471.68 694.98 472.346 696.979 472.346 699.312L472.346 708.64L469.015 708.64L469.015 699.312ZM454.688 699.312C454.688 696.979 455.355 694.98 456.354 694.647C457.354 694.98 458.02 696.979 458.02 699.312L458.02 708.64L454.688 708.64L454.688 699.312Z" fill="#434E89"/>
<path d="M26.5751 596.003L25.3794 614.417C23.7053 615.135 22.5096 616.809 22.5096 618.722C22.5096 619.559 22.7487 620.396 23.1074 620.994C16.77 626.494 8.99764 631.277 0.0295393 635.223L0.0295278 892.668L255.919 892.668L255.919 696.446L257.832 696.446L257.832 694.652L253.886 694.652C254.126 693.576 254.365 692.5 254.365 691.304C254.365 686.401 251.256 682.216 246.832 680.662C246.832 680.542 246.832 680.542 246.832 680.423C246.832 678.749 245.755 677.314 244.32 676.835L243.723 675.161C243.842 674.922 243.962 674.803 243.962 674.563C243.962 674.205 243.723 673.846 243.364 673.726L243.005 668.465C242.886 668.465 242.886 668.465 242.886 668.465L242.527 673.726C242.288 673.846 242.049 674.205 242.049 674.563C242.049 674.803 242.049 674.922 242.168 675.161L241.69 676.835C240.135 677.314 239.059 678.749 239.059 680.423C239.059 680.542 239.059 680.542 239.059 680.662C234.635 682.216 231.526 686.401 231.526 691.304C231.526 692.5 231.765 693.576 232.124 694.652L228.178 694.652L228.178 694.772L227.819 694.772L227.819 674.922L227.939 674.922C228.417 674.922 228.895 674.444 228.895 673.966L228.895 673.487C228.895 673.009 228.417 672.531 227.939 672.531L226.743 672.531C226.863 672.291 226.863 671.933 226.863 671.574C226.863 669.183 225.547 667.03 223.634 665.834C222.438 665.117 221.482 664.16 220.645 663.084C220.764 662.965 220.884 662.726 220.884 662.486C220.884 662.128 220.645 661.888 220.406 661.769L220.166 658.78L220.047 658.78L219.808 661.769C219.569 661.888 219.329 662.128 219.329 662.486C219.329 662.726 219.449 662.965 219.569 663.084C218.732 664.16 217.775 665.117 216.579 665.834C214.666 667.03 213.351 669.183 213.351 671.574C213.351 671.933 213.47 672.291 213.47 672.531L212.274 672.531C211.796 672.531 211.437 673.009 211.437 673.487L211.437 673.966C211.437 674.444 211.796 674.922 212.274 674.922L212.514 674.922L212.514 687.597L209.524 687.597C210.242 686.162 210.72 684.608 210.72 683.053C210.72 677.553 205.698 672.77 198.165 670.02C193.262 668.346 189.197 665.954 185.848 663.204C185.968 662.965 186.088 662.726 186.088 662.367C186.088 661.649 185.729 661.051 185.011 660.812L184.653 653.877L184.055 653.877L183.696 660.812C182.979 661.051 182.62 661.649 182.62 662.367C182.62 662.726 182.62 662.965 182.859 663.204C179.511 665.954 175.445 668.226 170.543 670.02C163.01 672.77 157.988 677.553 157.988 683.053C157.988 683.89 158.227 684.847 158.466 685.684L156.314 685.684C157.031 683.532 157.39 681.14 157.39 678.629C157.39 666.432 148.182 656.388 136.345 655.073L134.79 650.529C134.79 650.409 134.671 650.409 134.431 650.29L133.714 637.615C133.594 637.615 133.594 637.615 133.594 637.615C133.475 637.615 133.475 637.615 133.475 637.615L132.638 650.29C132.399 650.409 132.279 650.409 132.279 650.529L130.725 655.073C121.876 656.029 114.582 662.008 111.354 670.02L111.114 656.627L112.43 656.627L112.43 654.236L111.114 654.236L110.756 637.256L112.191 637.256L112.191 635.941L111.354 635.941L111.354 635.462L110.516 635.462L110.516 629.364L111.354 629.364L111.354 628.766L110.038 628.766C110.158 628.408 110.158 627.929 110.158 627.571C110.158 626.136 109.44 624.94 108.364 624.222C107.647 623.744 107.049 623.266 106.571 622.548C106.69 622.548 106.69 622.429 106.69 622.309C106.69 622.07 106.571 621.951 106.451 621.831L106.331 620.277C106.451 620.277 106.451 620.277 106.571 620.277C107.168 620.277 107.647 619.798 107.766 619.32C107.527 619.559 107.168 619.798 106.81 619.798C106.331 619.798 105.853 619.44 105.853 618.842C105.853 618.483 106.092 618.124 106.451 617.885C105.853 618.005 105.375 618.483 105.375 619.081C105.375 619.679 105.734 620.037 106.212 620.277L106.092 621.831C105.973 621.951 105.853 622.07 105.853 622.309C105.853 622.429 105.853 622.548 105.973 622.548C105.494 623.266 104.896 623.744 104.179 624.222C103.103 624.94 102.266 626.136 102.266 627.571C102.266 627.929 102.385 628.408 102.505 628.766L101.19 628.766L101.19 629.364L102.027 629.364L102.027 635.462L101.19 635.462L101.19 635.941L100.353 635.941L100.353 637.256L101.788 637.256L101.429 654.236L100.113 654.236L100.113 656.627L101.429 656.627L101.07 675.161L99.1569 675.161L99.1569 677.553L100.951 677.553L100.831 685.923L94.3739 685.923C96.4067 682.097 97.4829 678.031 97.4829 673.846C97.4829 659.138 84.2101 646.344 64.1215 639.169C51.2075 634.506 39.9675 628.288 31.3581 620.994C31.7168 620.396 31.956 619.559 31.956 618.722C31.956 616.809 30.7602 615.135 29.0862 614.417L27.8904 596.003L26.5751 596.003ZM108.962 630.44C108.962 630.201 109.082 630.082 109.321 630.082L109.44 630.082C109.679 630.082 109.799 630.201 109.799 630.44L109.799 635.462L108.962 635.462L108.962 630.44ZM107.408 630.44C107.408 630.201 107.527 630.082 107.766 630.082L107.886 630.082C108.125 630.082 108.245 630.201 108.245 630.44L108.245 635.462L107.408 635.462L107.408 630.44ZM105.853 630.44C105.853 630.201 105.973 630.082 106.212 630.082L106.331 630.082C106.451 630.082 106.69 630.201 106.69 630.44L106.69 635.462L105.853 635.462L105.853 630.44ZM104.299 630.44C104.299 630.201 104.418 630.082 104.657 630.082L104.777 630.082C104.896 630.082 105.136 630.201 105.136 630.44L105.136 635.462L104.299 635.462L104.299 630.44ZM102.744 630.44C102.744 630.201 102.864 630.082 103.103 630.082L103.222 630.082C103.342 630.082 103.581 630.201 103.581 630.44L103.581 635.462L102.744 635.462L102.744 630.44ZM216.938 679.944C216.938 677.912 218.253 676.357 220.166 675.759C221.96 676.357 223.275 677.912 223.275 679.944L223.275 687.717L218.492 687.717L218.492 687.597L216.938 687.597L216.938 679.944ZM224.352 680.662C224.352 678.868 224.83 677.433 225.547 676.955C226.265 677.433 226.743 678.868 226.743 680.662L226.743 687.717L224.352 687.717L224.352 680.662ZM213.47 680.662C213.47 678.868 213.949 677.433 214.666 676.955C215.383 677.433 215.981 678.868 215.981 680.662L215.981 687.597L213.47 687.597L213.47 680.662Z" fill="url(#paint1_linear_3_139)"/>
<path d="M63.8981 622.428C63.8981 626.762 66.7874 630.229 70.5434 631.674L69.6766 644.675C68.5209 645.253 67.3652 646.698 67.3652 648.143C67.3652 649.009 67.9431 650.165 68.8098 650.743C64.7649 655.944 60.142 660.566 54.3635 664.033C45.4068 669.812 39.3393 679.636 39.3393 691.193C39.3393 694.371 39.6282 697.549 40.784 700.727L32.9829 700.727C33.2719 700.149 33.2719 699.571 33.2719 698.994C33.2719 688.592 25.1819 679.924 15.0695 678.769L13.6248 674.724C13.6248 674.724 13.6248 674.724 13.3359 674.435L12.4691 663.456L11.6024 674.435C11.6024 674.724 11.3134 674.724 11.3134 674.724L10.1577 678.769C6.40167 679.058 2.93455 680.502 0.045285 682.814L0.0452773 858.481L186.692 858.481L186.692 724.13L180.624 724.13L180.624 660.855L180.913 660.855C181.78 660.855 182.647 660.277 182.647 659.411L182.647 658.255C182.647 657.388 181.78 656.81 180.913 656.81L178.891 656.81C178.891 656.232 178.891 655.655 178.891 654.788C178.891 650.454 176.58 646.698 173.112 644.675C171.09 643.231 169.356 641.497 167.912 639.475C168.201 639.475 168.201 638.897 168.201 638.608C168.201 638.03 167.912 637.452 167.334 637.452L167.045 631.963L166.756 631.963L166.467 637.452C165.889 637.452 165.6 638.03 165.6 638.608C165.6 638.897 165.6 639.475 165.889 639.475C164.445 641.497 162.711 643.231 160.689 644.675C157.221 646.698 154.91 650.454 154.91 654.788C154.91 655.655 154.91 656.232 154.91 656.81L152.888 656.81C152.021 656.81 151.154 657.388 151.154 658.255L151.154 659.411C151.154 660.277 152.021 660.855 152.888 660.855L153.176 660.855L153.176 724.13L143.642 724.13L143.064 699.86L145.664 699.86L145.664 696.393L143.064 696.393L142.486 670.968L144.22 670.968L144.22 667.501L142.486 667.501L142.197 644.098L143.931 644.098L143.931 642.364L142.775 642.364L142.775 641.786L141.619 641.786L141.619 633.118L142.775 633.118L142.775 632.252L141.042 632.252C141.33 631.674 141.33 631.385 141.33 630.807C141.33 628.784 140.175 627.051 138.73 626.184C137.863 625.606 136.997 624.739 136.13 623.873C136.419 623.584 136.419 623.584 136.419 623.295C136.419 623.006 136.419 623.006 136.13 622.717L135.841 620.694C136.13 620.694 136.13 620.694 136.13 620.694C136.997 620.694 137.863 620.117 137.863 619.25C137.574 619.828 137.285 620.117 136.708 620.117C135.841 620.117 135.263 619.539 135.263 618.672C135.263 618.094 135.552 617.516 136.13 617.516C135.263 617.516 134.685 618.094 134.685 618.961C134.685 619.828 134.974 620.406 135.841 620.694L135.552 622.717C135.263 623.006 135.263 623.006 135.263 623.295C135.263 623.584 135.263 623.584 135.552 623.873C134.685 624.739 133.818 625.606 132.952 626.184C131.507 627.051 130.351 628.784 130.351 630.807C130.351 631.385 130.351 631.674 130.64 632.252L128.907 632.252L128.907 633.118L130.062 633.118L130.062 641.786L128.907 641.786L128.907 642.364L127.751 642.364L127.751 644.098L129.484 644.098L129.196 667.501L127.462 667.501L127.462 670.968L129.196 670.968L128.618 696.393L126.017 696.393L126.017 699.86L128.618 699.86L128.04 724.13L121.395 724.13L121.395 685.414L121.683 685.414C121.972 685.414 122.55 685.125 122.55 684.547L122.55 683.969C122.55 683.392 121.972 683.103 121.683 683.103L120.528 683.103C120.528 682.814 120.528 682.525 120.528 681.947C120.528 679.636 119.372 677.613 117.35 676.457C116.194 675.591 115.038 674.724 114.46 673.568C114.46 673.568 114.749 673.279 114.749 672.99C114.749 672.701 114.46 672.412 114.171 672.412L113.882 669.234L113.593 669.234L113.593 672.412C113.305 672.412 113.016 672.701 113.016 672.99C113.016 673.279 113.305 673.568 113.305 673.568C112.438 674.724 111.571 675.591 110.415 676.457C108.393 677.613 107.237 679.636 107.237 681.947C107.237 682.525 107.237 682.814 107.237 683.103L106.081 683.103C105.504 683.103 105.215 683.392 105.215 683.969L105.215 684.547C105.215 685.125 105.504 685.414 106.081 685.414L106.37 685.414L106.37 700.727L101.747 700.727C102.614 697.549 103.192 694.371 103.192 691.193C103.192 679.636 97.1247 669.812 87.879 664.033C82.3894 660.566 77.4777 655.944 73.7216 650.743C74.2995 650.165 74.8773 649.009 74.8773 648.143C74.8773 646.698 74.0105 645.253 72.5659 644.675L71.6991 631.963C72.277 631.963 72.8548 631.963 73.4327 631.963C78.3444 631.963 82.3894 628.495 82.9673 623.873C81.8116 626.473 78.9223 628.207 75.7441 628.207C71.4102 628.207 67.6541 624.739 67.6541 620.406C67.6541 617.227 69.6766 614.338 72.277 613.182C67.6541 613.76 63.8981 617.516 63.8981 622.428ZM139.597 634.563L139.886 634.274L140.175 634.274C140.464 634.274 140.753 634.563 140.753 634.563L140.753 641.786L139.597 641.786L139.597 634.563ZM137.285 634.563C137.285 634.563 137.574 634.274 137.863 634.274L138.152 634.274C138.441 634.274 138.441 634.563 138.441 634.563L138.441 641.786L137.285 641.786L137.285 634.563ZM135.263 634.563C135.263 634.563 135.552 634.274 135.841 634.274C136.13 634.274 136.419 634.563 136.419 634.563L136.419 641.786L135.263 641.786L135.263 634.563ZM132.952 634.563C132.952 634.563 133.241 634.274 133.529 634.274L133.818 634.274C134.107 634.274 134.107 634.563 134.107 634.563L134.107 641.786L132.952 641.786L132.952 634.563ZM130.929 634.563C130.929 634.563 131.218 634.274 131.507 634.274C131.796 634.274 132.085 634.563 132.085 634.563L132.085 641.786L130.929 641.786L130.929 634.563ZM161.266 669.812C161.266 666.345 163.578 663.456 167.045 662.589C170.223 663.456 172.535 666.345 172.535 669.812L172.535 683.969L161.266 683.969L161.266 669.812ZM174.557 671.257C174.557 668.078 175.424 665.478 176.58 664.611C178.024 665.478 178.891 668.078 178.891 671.257L178.891 683.969L174.557 683.969L174.557 671.257ZM154.91 671.257C154.91 668.078 155.777 665.478 157.221 664.611C158.377 665.478 159.244 668.078 159.244 671.257L159.244 683.969L154.91 683.969L154.91 671.257ZM110.704 690.326C110.704 688.303 112.149 686.859 113.882 686.281C115.616 686.859 117.061 688.303 117.061 690.326L117.061 698.127L110.704 698.127L110.704 690.326ZM117.927 691.193C117.927 689.459 118.505 687.725 119.083 687.437C119.95 687.725 120.528 689.459 120.528 691.193L120.528 698.127L117.927 698.127L117.927 691.193ZM107.237 691.193C107.237 689.459 107.815 687.725 108.393 687.437C109.26 687.725 109.549 689.459 109.549 691.193L109.549 698.127L107.237 698.127L107.237 691.193Z" fill="url(#paint2_linear_3_139)"/>
<path d="M269.221 563.434C269.221 572.873 275.063 580.963 283.603 583.659L281.805 613.323C278.659 614.222 276.861 617.368 276.861 620.514C276.861 623.211 277.76 625.009 279.558 626.807C271.018 638.492 260.232 648.38 247.647 656.47C227.422 668.605 213.938 691.078 213.938 716.697C213.938 723.888 214.837 731.079 217.084 737.821L200.005 737.821C200.005 736.922 200.455 735.574 200.455 734.675C200.455 710.854 182.477 691.528 159.555 688.831L156.858 679.842C156.858 679.842 156.409 679.842 155.959 679.842L154.611 655.122L154.161 655.122L152.364 679.842C151.914 679.842 151.914 679.842 151.914 679.842L148.768 688.831C125.846 691.528 108.317 710.854 108.317 734.675C108.317 739.169 108.767 743.664 110.115 748.158L94.834 748.158L94.834 754.9L102.025 754.9L102.025 790.407L85.3955 790.407L84.4966 740.967L88.9911 740.967L88.9911 735.574L84.4966 735.574L83.5976 691.078L86.2943 691.078L86.2943 685.235L83.5976 685.235L82.6988 644.785L85.8449 644.785L85.8449 641.189L84.0472 641.189L84.0472 640.29L81.7998 640.29L81.7998 625.458L84.0472 625.458L84.0472 624.11L80.901 624.11C80.901 623.211 81.3504 622.312 81.3504 621.413C81.3504 617.818 79.5526 615.121 76.8559 613.323C75.0581 612.424 73.7097 611.076 72.3614 609.278C72.8109 609.278 72.8109 608.829 72.8109 608.829C72.8109 608.379 72.8109 607.93 72.3614 607.48L71.912 603.885C72.3614 603.885 72.3614 603.885 72.3614 603.885C74.1592 603.885 75.0581 602.986 75.5076 601.637C75.0581 602.087 74.1593 602.986 73.2603 602.986C71.912 602.986 71.0131 601.637 71.0131 600.289C71.0131 599.39 71.4625 598.491 72.3614 598.042C70.5636 598.491 69.6647 599.84 69.6647 601.188C69.6647 602.087 70.5636 603.435 71.4625 603.885L71.4625 607.48C71.013 607.93 70.5636 608.379 70.5636 608.829L71.0131 609.278C70.1142 611.076 68.3163 612.424 66.968 613.323C64.2713 615.121 62.4735 617.818 62.4735 621.413C62.4735 622.312 62.4735 623.211 62.923 624.11L59.7768 624.11L59.7768 625.458L61.5746 625.458L61.5746 640.29L59.7768 640.29L59.7768 641.189L57.5296 641.189L57.5296 644.785L61.1252 644.785L60.2262 685.235L57.0801 685.235L57.0801 691.078L60.2262 691.078L59.3274 735.574L54.8329 735.574L54.8329 740.967L59.3274 740.967L58.4284 790.407L49.8889 790.407L49.8889 702.314L50.7878 702.314C52.1361 702.314 53.4845 700.966 53.4845 699.168L53.4845 697.82C53.4845 696.022 52.1361 694.674 50.7878 694.674L46.2933 694.674C46.7428 693.325 46.7428 692.426 46.7428 691.078C46.7428 682.988 42.6977 675.797 35.956 671.752C31.9109 669.504 28.7648 666.358 26.0681 662.313C26.5176 661.864 26.967 661.414 26.967 660.515C26.967 659.616 26.0681 658.718 25.1692 658.268L24.7197 647.931L23.8208 647.931L22.9218 658.268C22.0229 658.718 21.5736 659.616 21.5736 660.515C21.5736 661.414 22.023 661.864 22.4724 662.313C19.7757 666.358 16.1802 669.504 12.1351 671.752C5.84281 675.797 1.3483 682.988 1.3483 691.078C1.3483 692.426 1.79777 693.325 1.79777 694.674L-2.45491e-05 694.674L0 1256.5L763.166 1256.5L764.515 792.654L764.515 790.406L760.47 790.406C760.919 788.609 760.919 787.26 760.919 785.463C760.919 778.721 756.874 773.327 751.031 771.08C751.031 771.08 751.031 771.08 751.031 770.631C751.031 768.383 749.233 766.586 747.436 765.687L746.537 763.44L746.986 762.99C746.986 762.091 746.537 761.642 746.087 761.642L745.638 754.45L745.188 761.642C744.739 761.642 744.289 762.091 744.289 762.99L744.289 763.44L743.84 765.687C741.593 766.586 740.244 768.383 740.244 770.631C740.244 771.08 740.244 771.08 740.244 771.08C734.402 773.327 729.907 778.721 729.907 785.463C729.907 787.26 730.356 788.609 730.806 790.406L725.413 790.406L724.963 790.406L724.963 763.44C725.862 763.44 726.311 762.541 726.311 762.091L726.311 761.192C726.311 760.743 725.862 759.844 724.963 759.844L723.615 759.844C723.615 759.394 723.615 758.945 723.615 758.496C723.615 755.349 721.817 752.653 719.12 750.855C717.322 749.956 715.974 748.608 715.075 747.259C715.075 746.81 715.525 746.81 715.525 746.36C715.525 745.911 715.075 745.461 714.626 745.461L714.626 740.967L714.176 740.967L713.727 745.461C713.727 745.461 713.277 745.911 713.277 746.36C713.277 746.81 713.277 746.81 713.727 747.259C712.378 748.608 711.03 749.956 709.682 750.855C706.985 752.653 705.187 755.349 705.187 758.496C705.187 758.945 705.187 759.394 705.187 759.844L703.839 759.844C702.94 759.844 702.491 760.743 702.491 761.192L702.491 762.091C702.491 762.541 702.94 763.44 703.839 763.44L703.839 780.519L699.794 780.519C700.693 778.721 701.592 776.474 701.592 774.226C701.592 767.035 694.85 760.293 684.513 756.698C677.771 754.001 671.928 750.855 667.433 747.259C667.883 746.81 667.883 746.36 667.883 746.36C667.883 745.012 667.433 744.113 666.535 744.113L666.085 734.675L665.186 734.675L664.737 744.113C663.838 744.113 662.939 745.012 662.939 746.36C662.939 746.36 663.388 746.81 663.388 747.259C658.894 750.855 653.5 754.001 646.759 756.698C636.421 760.293 629.68 767.035 629.68 774.226C629.68 775.575 629.68 776.923 630.129 777.822L626.983 777.822C628.331 775.125 628.781 771.53 628.781 768.383C628.781 751.754 616.196 737.821 600.016 736.023L597.769 729.731C597.769 729.731 597.769 729.731 597.319 729.731L596.42 712.202C596.42 712.202 596.42 712.202 595.971 712.202L595.072 729.731C594.623 729.731 594.623 729.731 594.623 729.731L592.375 736.023C580.24 737.371 570.352 745.461 565.858 756.698L565.408 738.27L567.206 738.27L567.206 735.124L565.408 735.124L564.959 711.753L567.206 711.753L567.206 709.955L565.858 709.955L565.858 709.506L564.509 709.506L564.509 700.966L565.858 700.966L565.858 700.067L564.06 700.067C564.06 699.618 564.06 699.168 564.06 698.719C564.06 696.471 563.161 695.123 561.813 694.224C560.914 693.325 560.015 692.876 559.116 691.977C559.565 691.527 559.565 691.527 559.565 691.527C559.565 691.078 559.565 691.078 559.116 690.629L559.116 688.831C560.015 688.831 560.914 687.932 560.914 687.482C560.464 687.932 560.015 687.932 559.565 687.932C559.116 687.932 558.217 687.482 558.217 686.584C558.217 686.134 558.667 685.685 559.116 685.685C558.217 685.685 557.768 686.134 557.768 687.033C557.768 687.932 558.217 688.381 558.667 688.381L558.667 690.629C558.217 691.078 558.217 691.078 558.217 691.527C558.217 691.527 558.217 691.527 558.667 691.977C557.768 692.876 556.869 693.325 555.97 694.224C554.621 695.123 553.723 696.471 553.723 698.719C553.723 699.168 553.723 699.618 553.723 700.067L551.925 700.067L551.925 700.966L553.273 700.966L553.273 709.506L551.925 709.506L551.925 709.955L550.576 709.955L550.576 711.753L552.824 711.753L552.374 735.124L550.576 735.124L550.576 738.27L552.374 738.27L551.925 763.44L549.228 763.44L549.228 766.586L551.925 766.586L551.475 778.271L542.486 778.271C545.632 772.878 546.981 767.485 546.981 761.642C546.981 741.866 528.553 724.337 501.586 714.449C483.608 708.157 468.327 699.618 456.641 689.73C457.091 688.831 457.54 687.932 457.54 686.584C457.54 683.887 455.742 681.64 453.495 680.741L452.147 655.571L449.9 655.571L448.551 680.741C446.304 681.64 444.506 683.887 444.506 686.584C444.506 687.932 444.956 688.831 445.405 689.73C433.719 699.618 418.438 708.157 400.46 714.449C395.516 716.247 390.572 718.495 386.527 720.742L386.527 647.931L386.977 647.931C387.875 647.931 388.774 647.032 388.774 645.684L388.774 644.785C388.774 643.436 387.875 642.537 386.977 642.537L384.28 642.537C384.28 642.088 384.28 641.189 384.28 640.29C384.28 634.897 381.583 630.402 377.089 627.706C374.841 626.357 372.594 624.11 370.796 621.413C370.796 621.413 371.246 620.964 371.246 620.514C371.246 619.615 370.796 619.166 370.347 618.717L369.897 611.975L368.999 611.975L368.999 618.717C368.1 619.166 367.65 619.615 367.65 620.514C367.65 620.964 368.1 621.413 368.1 621.413C366.302 624.11 364.504 626.357 361.807 627.706C357.313 630.402 354.616 634.897 354.616 640.29C354.616 641.189 354.616 642.088 354.616 642.537L352.369 642.537C351.021 642.537 350.122 643.436 350.122 644.785L350.122 645.684C350.122 647.032 351.021 647.931 352.369 647.931L352.369 694.224C347.425 678.044 336.638 665.01 322.256 656.47C310.121 648.38 299.334 638.492 290.794 626.807C292.143 625.009 293.491 623.211 293.491 620.514C293.491 617.368 291.244 614.222 288.547 613.323L286.3 584.558C287.648 584.558 288.996 585.008 290.345 585.008C301.132 585.008 310.121 576.918 311.469 566.58C308.323 572.423 302.48 576.468 295.289 576.468C285.401 576.468 277.311 568.378 277.311 558.49C277.311 551.748 281.356 545.456 287.648 542.759C276.861 544.108 269.221 552.647 269.221 563.434ZM78.2043 628.155C78.2043 627.706 78.6537 627.256 79.1031 627.256L79.5526 627.256C80.0021 627.256 80.4515 627.706 80.4515 628.155L80.4515 640.29L78.2043 640.29L78.2043 628.155ZM74.6086 628.155C74.6086 627.706 75.0581 627.256 75.5076 627.256C75.9571 627.256 76.4065 627.706 76.4065 628.155L76.4065 640.29L74.6086 640.29L74.6086 628.155ZM71.0131 628.155C71.0131 627.706 71.013 627.256 71.4625 627.256L71.912 627.256C72.3614 627.256 72.8109 627.706 72.8109 628.155L72.8109 640.29L71.0131 640.29L71.0131 628.155ZM66.968 628.155C66.968 627.706 67.4175 627.256 67.867 627.256L68.3164 627.256C68.7658 627.256 69.2153 627.706 69.2153 628.155L69.2153 640.29L66.968 640.29L66.968 628.155ZM63.3725 628.155C63.3725 627.706 63.8218 627.256 64.2713 627.256L64.7207 627.256C65.1702 627.256 65.1702 627.706 65.1702 628.155L65.1702 640.29L63.3725 640.29L63.3725 628.155ZM362.706 658.718C362.706 654.673 365.403 650.628 369.448 649.729C373.493 650.628 376.19 654.673 376.19 658.718L376.19 675.797L362.706 675.797L362.706 658.718ZM378.886 660.515C378.886 656.47 379.785 653.324 381.583 652.425C382.931 653.324 384.28 656.47 384.28 660.515L384.28 675.797L378.886 675.797L378.886 660.515ZM354.616 660.515C354.616 656.47 355.964 653.324 357.313 652.425C359.111 653.324 360.01 656.47 360.01 660.515L360.01 675.797L354.616 675.797L354.616 660.515ZM562.712 702.314C562.712 702.314 562.712 701.865 563.161 701.865C563.61 701.865 563.61 702.314 563.61 702.314L563.61 709.506L562.712 709.506L562.712 702.314ZM560.464 702.314C560.464 702.314 560.464 701.865 560.914 701.865C561.363 701.865 561.363 702.314 561.363 702.314L561.363 709.506L560.464 709.506L560.464 702.314ZM558.217 702.314L558.667 701.865L559.116 701.865L559.565 702.314L559.565 709.506L558.217 709.506L558.217 702.314ZM555.97 702.314C555.97 702.314 556.419 701.865 556.869 701.865C557.318 701.865 557.318 702.314 557.318 702.314L557.318 709.506L555.97 709.506L555.97 702.314ZM554.172 702.314C554.172 702.314 554.172 701.865 554.621 701.865C555.071 701.865 555.071 702.314 555.071 702.314L555.071 709.506L554.172 709.506L554.172 702.314ZM13.4834 719.393C13.4834 712.652 17.9779 707.258 24.2702 705.46C30.1131 707.258 34.6076 712.652 34.6076 719.393L34.6076 745.462L13.4834 745.462L13.4834 719.393ZM38.2032 721.641C38.2032 715.798 40.001 710.854 42.6977 709.056C44.945 710.854 46.7428 715.798 46.7428 721.641L46.7428 745.462L38.2032 745.462L38.2032 721.641ZM1.79777 721.641C1.79777 715.798 3.59556 710.854 5.84281 709.056C8.09006 710.854 9.88785 715.798 9.88786 721.641L9.88786 745.462L1.79777 745.462L1.79777 721.641ZM710.131 770.181C710.131 767.485 711.929 765.237 714.176 764.338C716.873 765.237 718.671 767.485 718.671 770.181L718.671 780.519L711.929 780.519L710.131 780.519L710.131 770.181ZM720.019 771.08C720.019 768.833 720.918 766.586 721.817 766.136C722.716 766.586 723.615 768.833 723.615 771.08L723.615 780.519L720.019 780.519L720.019 771.08ZM705.187 771.08C705.187 768.833 706.086 766.586 706.985 766.136C707.884 766.586 708.783 768.833 708.783 771.08L708.783 780.519L705.187 780.519L705.187 771.08Z" fill="#5D679F"/>
<defs>
<linearGradient id="paint0_linear_3_139" x1="225.082" y1="617.754" x2="225.082" y2="706.085" gradientUnits="userSpaceOnUse">
<stop stop-color="#D1D8DB"/>
<stop offset="1" stop-color="white"/>
</linearGradient>
<linearGradient id="paint1_linear_3_139" x1="96.5791" y1="619.081" x2="96.5791" y2="738.655" gradientUnits="userSpaceOnUse">
<stop stop-color="#A3B6BC"/>
<stop offset="0.67" stop-color="#B4C2C5"/>
<stop offset="1" stop-color="#D8E7EB"/>
</linearGradient>
<linearGradient id="paint2_linear_3_139" x1="59.4714" y1="660.566" x2="59.4714" y2="949.493" gradientUnits="userSpaceOnUse">
<stop stop-color="#004458"/>
<stop offset="0.04" stop-color="#004458"/>
<stop offset="0.63" stop-color="#0086AD"/>
<stop offset="1" stop-color="#002C45"/>
</linearGradient>
</defs>
</svg>
