<svg width="38" height="38" viewBox="0 0 38 38" fill="none" xmlns="http://www.w3.org/2000/svg">
<g clip-path="url(#clip0_1482_1507)">
<path d="M31.8 13.1826L31.6572 6.53883C31.6447 5.95649 31.1625 5.49453 30.5801 5.50704L23.9364 5.64982L19.2044 1.13591C18.784 0.735072 18.1189 0.749366 17.7162 1.1679L13.1826 5.88093L6.53882 6.02371C5.95648 6.03623 5.49452 6.51848 5.50704 7.10082L5.64982 13.7446L1.13591 18.4766C0.735062 18.8969 0.749358 19.5621 1.16789 19.9647L5.88092 24.4984L6.0237 31.1421C6.03622 31.7245 6.51847 32.1864 7.10081 32.1739L13.7446 32.0311L18.4765 36.5451C18.6867 36.7455 18.9581 36.8421 19.2272 36.8363C19.4964 36.8305 19.7633 36.7223 19.9646 36.5131L24.4984 31.8L31.1421 31.6573C31.7245 31.6447 32.1864 31.1625 32.1739 30.5802L32.0311 23.9364L36.545 19.2044C36.9459 18.7842 36.9316 18.119 36.5131 17.7163L31.8 13.1826ZM30.2042 22.7955C30.0117 22.9974 29.9069 23.2673 29.9129 23.5461L30.0424 29.571L24.0176 29.7005C23.7387 29.7065 23.4735 29.8228 23.2801 30.0238L19.1726 34.2938L14.8854 30.2042C14.6835 30.0117 14.4137 29.9069 14.1348 29.9129L8.10993 30.0424L7.98045 24.0176C7.97446 23.7387 7.8582 23.4735 7.6572 23.2801L3.38718 19.1726L7.47679 14.8854C7.6693 14.6835 7.77406 14.4137 7.76806 14.1348L7.63858 8.10994L13.6634 7.98046C13.9423 7.97447 14.2074 7.85821 14.4008 7.65721L18.5084 3.38718L22.7956 7.4768C22.9975 7.66931 23.2673 7.77406 23.5462 7.76807L29.571 7.63859L29.7005 13.6634C29.7065 13.9423 29.8227 14.2074 30.0238 14.4008L34.2938 18.5084L30.2042 22.7955Z" fill="#F9B826"/>
</g>
<defs>
<clipPath id="clip0_1482_1507">
<rect width="36" height="36" fill="white" transform="translate(0.457886 1.23138) rotate(-1.23114)"/>
</clipPath>
</defs>
</svg>
