<svg width="294" height="182" viewBox="0 0 294 182" fill="none" xmlns="http://www.w3.org/2000/svg">
<path opacity="0.25" d="M147.642 179.745C217.171 179.063 273.407 165.393 273.248 149.212C273.09 133.031 216.596 120.466 147.067 121.148C77.5377 121.83 21.3017 135.5 21.4604 151.681C21.6191 167.862 78.1124 180.427 147.642 179.745Z" fill="#042030"/>
<path d="M244.563 8.08629L146.298 42.7516L47.2725 10.0211L0.747502 79.0807L147.13 127.548L292.433 76.2201L244.563 8.08629Z" fill="#4E2999"/>
<path opacity="0.45" d="M17.9192 76.1122L139.367 121.223L97.3654 80.4333C97.3654 80.4333 28.9069 64.6039 17.9192 76.1122Z" fill="#240F4F"/>
<path opacity="0.45" d="M275.307 73.5879L154.767 121.072L195.961 79.4663C195.861 79.4673 263.996 62.2983 275.307 73.5879Z" fill="#240F4F"/>
<path d="M147.13 127.548L0.747498 79.0807L0.811241 85.5804L147.194 134.047L292.497 82.7198L292.433 76.2201L147.13 127.548Z" fill="#994EF8"/>
<path d="M69.7278 158.308L86.1925 113.844L140.772 131.91L69.7278 158.308Z" fill="#3B1E77"/>
<path d="M147.149 129.547L69.7278 158.308L75.5873 164.351L147.233 138.047L219.28 162.942L225.12 156.784L147.149 129.547Z" fill="#994EF8"/>
<path d="M225.12 156.784L207.687 112.653L153.472 131.786L225.12 156.784Z" fill="#3B1E77"/>
<path opacity="0.45" d="M220.195 144.032L153.472 131.786L207.687 112.653L220.195 144.032Z" fill="#3B1E77"/>
<path d="M147.233 138.047C150.16 138.018 152.509 135.622 152.481 132.695C152.452 129.768 150.056 127.419 147.129 127.448C144.202 127.476 141.852 129.872 141.881 132.799C141.91 135.726 144.306 138.076 147.233 138.047Z" fill="white" fill-opacity="0.5"/>
<path d="M240.363 8.12747L146.429 56.051L51.5723 9.97896C47.3284 15.7209 13.2959 73.7574 13.2959 73.7574C13.6959 73.7535 13.9969 73.8505 14.3969 73.8466C101.278 81.695 125.645 108.757 133.709 115.279C141.774 121.9 147.167 121.147 147.167 121.147C147.167 121.147 152.574 121.794 160.508 115.016C168.443 108.338 192.274 80.8026 278.984 71.2518C279.384 71.2478 279.683 71.1449 280.083 71.141C279.883 71.1429 244.62 13.886 240.363 8.12747Z" fill="#F5B304"/>
<path d="M279.883 71.1429C279.483 71.1469 279.184 71.2498 278.784 71.2537C192.074 80.8045 168.243 108.34 160.308 115.018C152.374 121.796 146.967 121.149 146.967 121.149C146.967 121.149 141.574 121.902 133.509 115.281C125.445 108.759 101.078 81.6969 14.1969 73.8486C13.7969 73.8525 13.4959 73.7554 13.0959 73.7593C12.4068 74.8662 13.1146 75.6592 13.1146 75.6592C100.894 83.2988 124.461 110.469 132.527 117.09C140.591 123.611 146.886 123.05 146.886 123.05C146.886 123.05 153.19 123.488 161.125 116.81C169.06 110.132 192.09 82.5044 279.702 73.0448C279.902 73.0428 280.594 72.236 279.883 71.1429Z" fill="#994EF8"/>
<path d="M236.709 2.66304C188.298 -8.46274 146.089 31.6531 146.089 31.6531C146.089 31.6531 103.102 -7.62722 54.9182 4.44588C54.9182 4.44588 41.4248 25.5792 22.8758 61.4628C22.8758 61.4628 118.076 71.2297 146.866 110.849C174.873 70.6727 269.864 59.0406 269.864 59.0406C250.615 23.5277 236.709 2.66304 236.709 2.66304Z" fill="#F5EFFB"/>
<path d="M269.864 59.0406C269.864 59.0406 174.873 70.6727 146.866 110.849C118.176 71.2287 22.9758 61.4619 22.9758 61.4619C22.9758 61.4619 23.0072 64.6617 17.7692 71.0134C17.7692 71.0134 104.126 76.3668 135.875 111.857C143.357 120.184 146.947 119.149 146.947 119.149C146.947 119.149 150.657 120.113 157.874 111.641C188.822 75.5361 275.157 68.4891 275.157 68.4891C269.894 62.1404 269.864 59.0406 269.864 59.0406Z" fill="#DFCBF4"/>
<path d="M231.351 6.91579C231.351 6.91579 195.162 -1.92976 146.14 36.8528C96.4682 -0.861852 60.3591 8.59272 60.3591 8.59272L36.4251 56.2297C110.672 60.6018 146.738 97.7499 146.738 97.7499C146.738 97.7499 182.068 59.9016 256.215 54.0742L231.351 6.91579ZM146.793 93.2491C146.793 93.2491 113.06 59.3783 42.1974 53.373L62.2787 10.574C62.2787 10.574 97.7093 3.32619 146.262 39.0518C194.105 2.38083 229.671 8.93236 229.671 8.93236L250.587 51.3293C179.856 58.7233 146.793 93.2491 146.793 93.2491Z" fill="#863ED5"/>
<path opacity="0.2" d="M155.69 72.4547C168.926 62.4911 210.378 40.3231 238.406 43.0483" stroke="#863ED5" stroke-width="3" stroke-linecap="round"/>
<path opacity="0.2" d="M155.419 44.8622C167.161 35.4813 197.748 17.0266 226.162 18.2556" stroke="#863ED5" stroke-width="3" stroke-linecap="round"/>
<path opacity="0.2" d="M155.557 58.8616C168.292 48.7581 201.465 28.8815 232.279 30.203" stroke="#863ED5" stroke-width="3" stroke-linecap="round"/>
<path opacity="0.2" d="M138.691 72.6214C125.262 62.9193 83.3836 41.5685 55.4143 44.843" stroke="#863ED5" stroke-width="3" stroke-linecap="round"/>
<path opacity="0.2" d="M138.42 45.029C126.497 35.8801 95.5533 18.0288 67.1694 19.8149" stroke="#863ED5" stroke-width="3" stroke-linecap="round"/>
<path opacity="0.2" d="M138.557 59.0283C125.627 49.1765 92.0701 29.9544 61.2875 31.8799" stroke="#863ED5" stroke-width="3" stroke-linecap="round"/>
<path d="M146.189 31.6521C146.189 31.6521 147.155 28.1425 149.065 29.1238C149.065 29.1238 148.421 85.8328 150.637 107.912C151.191 113.407 156.065 120.86 157.992 123.641L155.492 123.665L154.815 125.972C154.815 125.972 147.293 113.545 146.945 108.648C145.229 86.6642 145.541 36.9587 146.189 31.6521Z" fill="#54DAF5"/>
</svg>
