<svg width="765" height="1127" viewBox="0 0 765 1127" fill="none" xmlns="http://www.w3.org/2000/svg">
<path d="M764.262 913.978H0.0357361L0.0357361 0H764.262V913.978Z" fill="url(#paint0_linear_3_201)"/>
<g opacity="0.6">
<ellipse cx="528.236" cy="581.214" rx="68" ry="60.9916" fill="#FFFFD3"/>
<ellipse opacity="0.6" cx="528.236" cy="581.214" rx="104" ry="93.2813" fill="#FFFFD3"/>
<ellipse opacity="0.3" cx="528.236" cy="581.215" rx="144" ry="129.159" fill="#FFFFD3"/>
<ellipse opacity="0.3" cx="528.236" cy="581.214" rx="178" ry="159.655" fill="#FFFFD3"/>
</g>
<path d="M228.438 542.994C228.438 545.767 230.469 548.143 233.207 548.936L232.589 557.651C231.618 558.047 230.999 558.839 230.999 559.869C230.999 560.582 231.353 561.137 231.883 561.612C229.056 565.098 225.523 568.109 221.371 570.406C214.658 574.051 210.241 580.706 210.241 588.233C210.241 590.451 210.595 592.511 211.301 594.492L205.736 594.492C205.736 594.175 205.736 593.779 205.736 593.462C205.736 586.49 199.906 580.785 192.398 579.993L191.427 577.379C191.427 577.379 191.338 577.299 191.162 577.299L190.632 570.09C190.632 570.01 190.632 570.01 190.543 570.01C190.543 570.01 190.543 570.01 190.543 570.09L190.013 577.299C189.837 577.299 189.748 577.379 189.748 577.379L188.777 579.993C181.268 580.785 175.439 586.49 175.439 593.462C175.439 594.888 175.704 596.235 176.145 597.502L170.934 597.502L170.934 599.562L173.319 599.562L173.319 610.02L169.697 610.02L169.432 598.928L170.845 598.928L170.845 597.265L169.432 597.265L169.079 584.192L170.139 584.192L170.139 582.449L169.079 582.449L168.814 570.486L169.962 570.486L169.962 569.535L169.255 569.535L169.255 569.218L168.637 569.218L168.637 564.781L169.255 564.781L169.255 564.385L168.195 564.385C168.284 564.147 168.372 563.831 168.372 563.593C168.372 562.563 167.754 561.691 166.87 561.216C166.34 560.899 165.899 560.503 165.545 560.028C165.545 560.028 165.634 559.948 165.634 559.79C165.634 559.711 165.545 559.552 165.369 559.552L165.369 558.364C165.369 558.443 165.457 558.443 165.457 558.443C165.987 558.443 166.34 558.126 166.429 557.73C166.252 557.968 165.987 558.126 165.722 558.126C165.28 558.126 164.927 557.809 164.927 557.413C164.927 557.096 165.104 556.858 165.369 556.779C164.927 556.779 164.574 557.175 164.574 557.572C164.574 557.968 164.839 558.285 165.192 558.364L165.104 559.552C165.015 559.552 164.927 559.711 164.927 559.79C164.927 559.948 164.927 560.028 165.015 560.028C164.662 560.503 164.22 560.899 163.602 561.216C162.719 561.691 162.189 562.563 162.189 563.593C162.189 563.831 162.189 564.147 162.277 564.385L161.217 564.385L161.217 564.781L161.924 564.781L161.924 569.218L161.217 569.218L161.217 569.535L160.599 569.535L160.599 570.486L161.747 570.486L161.482 582.449L160.422 582.449L160.422 584.192L161.394 584.192L161.129 597.265L159.627 597.265L159.627 598.928L161.129 598.928L160.864 610.02L151.324 610.02L151.324 588.312L151.501 588.312C151.854 588.312 152.207 588.074 152.207 587.678L152.207 587.361C152.207 586.965 151.854 586.727 151.501 586.727L150.529 586.727C150.617 586.49 150.617 586.173 150.617 585.935C150.617 584.271 149.557 582.766 148.056 581.894C147.172 581.419 146.377 580.706 145.671 579.914C145.847 579.835 145.936 579.676 145.936 579.518C145.936 579.28 145.759 579.122 145.494 579.042L145.406 576.824L145.229 576.824L145.052 579.042C144.787 579.122 144.699 579.28 144.699 579.518C144.699 579.676 144.787 579.835 144.876 579.914C144.257 580.706 143.463 581.419 142.491 581.894C140.989 582.766 139.929 584.271 139.929 585.935C139.929 586.173 140.018 586.49 140.018 586.727L139.134 586.727C138.693 586.727 138.339 586.965 138.339 587.361L138.339 587.678C138.339 588.074 138.693 588.312 139.134 588.312L139.223 588.312L139.223 610.02L131.626 610.02L131.626 643.375L318.536 643.375L318.536 610.02L314.119 610.02L314.119 568.267L314.384 568.267C315.003 568.267 315.533 567.792 315.533 567.237L315.533 566.604C315.533 566.049 315.003 565.574 314.384 565.574L312.794 565.574C312.883 565.177 312.883 564.781 312.883 564.385C312.883 561.454 311.204 558.998 308.643 557.572C307.141 556.7 305.816 555.591 304.668 554.244C304.933 554.086 305.021 553.848 305.021 553.61C305.021 553.214 304.756 552.897 304.403 552.739L304.138 549.173L303.873 549.173L303.608 552.739C303.254 552.897 302.99 553.214 302.99 553.61C302.99 553.848 303.078 554.086 303.343 554.244C302.283 555.591 300.87 556.7 299.368 557.572C296.806 558.998 295.128 561.454 295.128 564.385C295.128 564.781 295.216 565.177 295.216 565.574L293.715 565.574C293.008 565.574 292.478 566.049 292.478 566.604L292.478 567.237C292.478 567.792 293.008 568.267 293.715 568.267L293.891 568.267L293.891 610.02L286.913 610.02L286.56 593.937L288.415 593.937L288.415 591.719L286.471 591.719L286.118 574.922L287.443 574.922L287.443 572.704L286.118 572.704L285.765 557.255L287.178 557.255L287.178 556.066L286.383 556.066L286.383 555.591L285.5 555.591L285.5 549.966L286.383 549.966L286.383 549.49L284.97 549.49C285.146 549.094 285.146 548.777 285.146 548.381C285.146 547.113 284.44 546.004 283.292 545.37C282.585 544.974 281.967 544.499 281.525 543.865C281.613 543.786 281.613 543.707 281.613 543.548C281.613 543.39 281.525 543.231 281.348 543.231L281.26 541.726C281.348 541.726 281.437 541.805 281.525 541.805C282.055 541.805 282.585 541.33 282.673 540.854C282.497 541.171 282.143 541.33 281.79 541.33C281.172 541.33 280.73 540.934 280.73 540.458C280.73 540.062 280.995 539.825 281.348 539.666C280.73 539.745 280.288 540.141 280.288 540.696C280.288 541.171 280.642 541.568 281.083 541.726L280.995 543.231C280.818 543.231 280.73 543.39 280.73 543.548C280.73 543.707 280.818 543.786 280.907 543.865C280.377 544.499 279.758 544.974 279.052 545.37C277.992 546.004 277.197 547.113 277.197 548.381C277.197 548.777 277.285 549.094 277.373 549.49L276.048 549.49L276.048 549.966L276.843 549.966L276.843 555.591L276.048 555.591L276.048 556.066L275.165 556.066L275.165 557.255L276.578 557.255L276.313 572.704L274.988 572.704L274.988 574.922L276.225 574.922L275.872 591.719L274.017 591.719L274.017 593.937L275.872 593.937L275.518 610.02L270.572 610.02L270.572 584.43L270.748 584.43C271.102 584.43 271.367 584.192 271.367 583.875L271.367 583.479C271.367 583.162 271.102 582.924 270.748 582.924L269.865 582.924C269.865 582.687 269.953 582.449 269.953 582.291C269.953 580.706 268.982 579.28 267.569 578.488C266.774 578.012 265.979 577.458 265.449 576.665C265.537 576.586 265.625 576.507 265.625 576.349C265.625 576.111 265.449 575.952 265.272 575.873L265.095 573.892L264.919 573.892L264.83 575.873C264.565 575.952 264.477 576.111 264.477 576.349C264.477 576.507 264.565 576.586 264.654 576.665C264.035 577.458 263.329 578.012 262.445 578.488C261.032 579.28 260.149 580.706 260.149 582.291C260.149 582.449 260.149 582.687 260.149 582.924L259.354 582.924C259 582.924 258.647 583.162 258.647 583.479L258.647 583.875C258.647 584.192 259 584.43 259.354 584.43L259.442 584.43L259.442 594.492L256.085 594.492C256.792 592.511 257.145 590.451 257.145 588.233C257.145 580.706 252.729 574.051 246.016 570.406C241.952 568.109 238.331 565.098 235.504 561.612C236.034 561.137 236.387 560.582 236.387 559.869C236.387 558.839 235.769 558.047 234.797 557.651L234.179 549.173C234.532 549.253 234.974 549.253 235.416 549.253C238.949 549.253 241.952 546.876 242.394 543.786C241.422 545.608 239.391 546.797 237.094 546.797C233.826 546.797 231.176 544.42 231.176 541.488C231.176 539.428 232.501 537.606 234.532 536.735C231.088 537.21 228.438 539.825 228.438 542.994ZM283.91 550.996C283.91 550.837 284.087 550.679 284.263 550.679L284.44 550.679C284.617 550.679 284.793 550.837 284.793 550.996L284.793 555.591L283.91 555.591L283.91 550.996ZM282.32 550.996C282.32 550.837 282.497 550.679 282.673 550.679L282.85 550.679C283.027 550.679 283.203 550.837 283.203 550.996L283.203 555.591L282.32 555.591L282.32 550.996ZM280.73 550.996C280.73 550.837 280.907 550.679 281.083 550.679L281.26 550.679C281.437 550.679 281.613 550.837 281.613 550.996L281.613 555.591L280.73 555.591L280.73 550.996ZM279.14 550.996C279.14 550.837 279.317 550.679 279.493 550.679L279.67 550.679C279.847 550.679 280.023 550.837 280.023 550.996L280.023 555.591L279.14 555.591L279.14 550.996ZM277.55 550.996C277.55 550.837 277.727 550.679 277.903 550.679L278.08 550.679C278.257 550.679 278.433 550.837 278.433 550.996L278.433 555.591L277.55 555.591L277.55 550.996ZM167.4 565.574C167.4 565.494 167.489 565.336 167.665 565.336L167.754 565.336C167.93 565.336 168.019 565.494 168.019 565.574L168.019 569.218L167.4 569.218L167.4 565.574ZM166.164 565.574C166.164 565.494 166.252 565.336 166.429 565.336L166.517 565.336C166.694 565.336 166.782 565.494 166.782 565.574L166.782 569.218L166.164 569.218L166.164 565.574ZM164.927 565.574C164.927 565.494 165.015 565.336 165.192 565.336L165.28 565.336C165.457 565.336 165.545 565.494 165.545 565.574L165.545 569.218L164.927 569.218L164.927 565.574ZM163.69 565.574C163.69 565.494 163.779 565.336 163.955 565.336L164.044 565.336C164.22 565.336 164.309 565.494 164.309 565.574L164.309 569.218L163.69 569.218L163.69 565.574ZM162.454 565.574C162.454 565.494 162.542 565.336 162.719 565.336L162.895 565.336C162.984 565.336 163.16 565.494 163.16 565.574L163.16 569.218L162.454 569.218L162.454 565.574ZM299.898 574.209C299.898 571.912 301.665 569.931 304.049 569.377C306.434 569.931 308.113 571.912 308.113 574.209L308.113 583.4L299.898 583.4L299.898 574.209ZM309.526 575.081C309.526 573.021 310.233 571.278 311.204 570.723C312.176 571.278 312.794 573.021 312.794 575.081L312.794 583.4L309.526 583.4L309.526 575.081ZM295.216 575.081C295.216 573.021 295.923 571.278 296.806 570.723C297.778 571.278 298.485 573.021 298.485 575.081L298.485 583.4L295.216 583.4L295.216 575.081ZM262.71 587.678C262.71 586.41 263.682 585.381 265.007 584.984C266.332 585.381 267.304 586.41 267.304 587.678L267.304 592.749L262.71 592.749L262.71 587.678ZM268.098 588.153C268.098 587.044 268.452 586.014 268.982 585.777C269.512 586.014 269.865 587.044 269.865 588.153L269.865 592.749L268.098 592.749L268.098 588.153ZM260.149 588.153C260.149 587.044 260.59 586.014 261.032 585.777C261.562 586.014 262.004 587.044 262.004 588.153L262.004 592.749L260.149 592.749L260.149 588.153ZM142.844 591.877C142.844 590.53 143.816 589.342 145.317 588.946C146.731 589.342 147.791 590.53 147.791 591.877L147.791 597.423L142.844 597.423L142.844 591.877ZM148.586 592.432C148.586 591.164 149.027 590.134 149.557 589.738C150.176 590.134 150.617 591.164 150.617 592.432L150.617 597.423L148.586 597.423L148.586 592.432ZM140.018 592.432C140.018 591.164 140.459 590.134 140.989 589.738C141.519 590.134 141.961 591.164 141.961 592.432L141.961 597.423L140.018 597.423L140.018 592.432Z" fill="url(#paint1_linear_3_201)"/>
<g opacity="0.3">
<path d="M466.78 526.685C466.78 530.165 469.29 533.031 472.714 534.055L471.915 544.7C470.774 545.109 469.975 546.235 469.975 547.361C469.975 548.282 470.317 548.999 471.002 549.613C467.578 553.912 463.242 557.495 458.107 560.361C450.004 564.864 444.526 572.95 444.526 582.265C444.526 584.926 444.983 587.485 445.782 589.839L438.935 589.839C438.935 589.43 438.935 589.123 438.935 588.713C438.935 580.115 431.859 573.053 422.616 572.132L421.36 568.856C421.36 568.856 421.246 568.856 421.132 568.856L420.447 559.951C420.447 559.951 420.447 559.849 420.333 559.849L420.333 559.951L419.649 568.856C419.534 568.856 419.42 568.856 419.42 568.856L418.165 572.132C408.921 573.053 401.846 580.115 401.846 588.713C401.846 590.351 402.074 591.989 402.645 593.627L396.254 593.627L396.254 596.083L399.221 596.083L399.221 608.878L392.603 608.878L392.146 591.068L393.972 591.068L393.972 589.02L392.146 589.02L391.804 572.95L393.059 572.95L393.059 570.801L391.804 570.801L391.461 556.164L392.831 556.164L392.831 554.936L392.032 554.936L392.032 554.526L391.233 554.526L391.233 549.204L392.032 549.204L392.032 548.692L390.663 548.692C390.777 548.385 390.891 547.975 390.891 547.668C390.891 546.44 390.206 545.314 389.065 544.802C388.38 544.393 387.81 543.881 387.353 543.369C387.467 543.267 387.467 543.165 387.467 543.062C387.467 542.857 387.353 542.755 387.239 542.653L387.125 541.322C387.239 541.322 387.239 541.322 387.353 541.322C387.924 541.322 388.38 540.913 388.494 540.401C388.38 540.708 388.038 540.913 387.581 540.913C387.125 540.913 386.668 540.503 386.668 540.094C386.668 539.684 386.897 539.48 387.239 539.275C386.668 539.377 386.212 539.787 386.212 540.299C386.212 540.708 386.554 541.117 387.011 541.22L386.897 542.653C386.782 542.755 386.668 542.857 386.668 543.062C386.668 543.165 386.668 543.267 386.782 543.369C386.326 543.881 385.755 544.393 385.071 544.802C383.93 545.314 383.245 546.44 383.245 547.668C383.245 547.975 383.359 548.385 383.473 548.692L382.104 548.692L382.104 549.204L382.902 549.204L382.902 554.526L382.104 554.526L382.104 554.936L381.305 554.936L381.305 556.164L382.674 556.164L382.446 570.801L381.077 570.801L381.077 572.95L382.332 572.95L381.99 589.02L380.164 589.02L380.164 591.068L381.99 591.068L381.533 608.878L378.224 608.878L378.224 577.045L378.452 577.045C379.137 577.045 379.707 576.533 379.707 575.919L379.707 575.305C379.707 574.691 379.137 574.179 378.452 574.179L376.854 574.179C376.854 573.769 376.968 573.36 376.968 572.95C376.968 569.982 375.257 567.423 372.632 565.99C371.034 565.069 369.665 563.943 368.524 562.612C368.752 562.408 368.866 562.203 368.866 561.896C368.866 561.486 368.638 561.179 368.181 560.975L367.953 557.29L367.611 557.29L367.382 560.975C367.04 561.179 366.812 561.486 366.812 561.896C366.812 562.203 366.926 562.408 367.04 562.612C366.013 563.943 364.643 565.069 363.046 565.99C360.421 567.423 358.709 569.982 358.709 572.95C358.709 573.36 358.709 573.769 358.823 574.179L357.112 574.179C356.541 574.179 355.97 574.69 355.97 575.305L355.97 575.919C355.97 576.533 356.541 577.045 357.112 577.045L357.454 577.045L357.454 608.878L350.721 608.878L350.721 706.833L666.601 706.833L666.601 609.697L667.514 609.697L667.514 608.878L665.346 608.878C665.574 608.366 665.688 607.854 665.688 607.24C665.688 604.783 663.976 602.736 661.466 601.917L661.58 601.815C661.58 600.996 660.895 600.28 660.096 600.075L659.754 599.154C659.868 599.154 659.868 599.051 659.868 598.949C659.868 598.744 659.754 598.642 659.64 598.54L659.412 595.878L659.297 595.878L659.183 598.54C658.955 598.642 658.841 598.744 658.841 598.949C658.841 599.051 658.841 599.154 658.955 599.154L658.613 600.075C657.814 600.28 657.243 600.996 657.243 601.815L657.243 601.917C654.847 602.736 653.021 604.783 653.021 607.24C653.021 607.854 653.249 608.366 653.363 608.878L651.195 608.878L650.967 608.878L650.967 599.051L651.081 599.051C651.423 599.051 651.651 598.847 651.651 598.642L651.651 598.437C651.651 598.13 651.423 597.926 651.081 597.926L650.396 597.926C650.51 597.823 650.51 597.618 650.51 597.414C650.51 596.288 649.826 595.162 648.684 594.65C648.114 594.241 647.543 593.831 647.087 593.217C647.201 593.115 647.201 593.012 647.201 592.91C647.201 592.808 647.087 592.705 646.973 592.603L646.859 591.068L646.744 591.068L646.63 592.603C646.402 592.705 646.288 592.808 646.288 592.91C646.288 593.012 646.402 593.115 646.516 593.217C646.06 593.831 645.489 594.241 644.804 594.65C643.777 595.162 643.093 596.288 643.093 597.414C643.093 597.618 643.093 597.823 643.093 597.926L642.408 597.926C642.18 597.926 641.951 598.13 641.951 598.437L641.951 598.642C641.951 598.847 642.18 599.051 642.408 599.051L642.522 599.051L642.522 605.398L640.924 605.398C641.381 604.681 641.609 603.862 641.609 603.146C641.609 600.382 638.87 598.028 634.648 596.697C632.023 595.776 629.741 594.65 627.915 593.319C627.915 593.217 628.029 593.012 628.029 592.91C628.029 592.501 627.801 592.296 627.458 592.091L627.23 588.713L626.888 588.713L626.66 592.091C626.317 592.296 626.089 592.501 626.089 592.91C626.089 593.012 626.089 593.217 626.203 593.319C624.377 594.65 622.095 595.776 619.356 596.697C615.248 598.028 612.509 600.382 612.509 603.146C612.509 603.555 612.623 603.965 612.737 604.476L611.596 604.476C611.938 603.35 612.166 602.225 612.166 600.996C612.166 594.957 607.031 589.942 600.526 589.225L599.728 586.973C599.728 586.973 599.613 586.973 599.499 586.973L599.043 580.627C598.929 580.627 598.929 580.627 598.929 580.627L598.472 586.973C598.358 586.973 598.358 586.973 598.358 586.973L597.445 589.225C592.538 589.737 588.544 592.705 586.832 596.697L586.604 590.044L587.289 590.044L587.289 588.918L586.604 588.918L586.49 580.525L587.175 580.525L587.175 579.808L586.718 579.808L586.718 579.604L586.262 579.604L586.262 576.533L586.718 576.533L586.718 576.226L586.033 576.226C586.033 576.021 586.147 575.919 586.147 575.714C586.147 574.998 585.691 574.383 585.12 573.974C584.664 573.769 584.322 573.565 584.093 573.258C584.207 573.155 584.207 573.155 584.207 573.053C584.207 572.95 584.093 572.848 584.093 572.848L583.979 572.029L584.093 572.029C584.436 572.029 584.664 571.825 584.778 571.517C584.664 571.722 584.436 571.825 584.207 571.825C583.979 571.825 583.751 571.62 583.751 571.313C583.751 571.108 583.865 571.006 583.979 570.903C583.751 570.903 583.409 571.21 583.409 571.517C583.409 571.722 583.637 571.927 583.865 572.029L583.865 572.848C583.751 572.848 583.751 572.95 583.751 573.053C583.751 573.155 583.751 573.155 583.751 573.258C583.523 573.565 583.18 573.769 582.838 573.974C582.153 574.383 581.811 574.998 581.811 575.714C581.811 575.919 581.811 576.021 581.925 576.226L581.126 576.226L581.126 576.533L581.583 576.533L581.583 579.604L581.126 579.604L581.126 579.808L580.67 579.808L580.67 580.525L581.469 580.525L581.24 588.918L580.556 588.918L580.556 590.044L581.24 590.044L581.012 599.154L579.985 599.154L579.985 600.382L581.012 600.382L580.898 604.476L577.36 604.476C578.502 602.634 579.186 600.587 579.186 598.54C579.186 591.272 571.769 584.926 560.699 581.446C553.51 579.092 547.347 576.021 542.668 572.439C542.782 572.132 542.897 571.722 542.897 571.313C542.897 570.392 542.326 569.573 541.413 569.163L540.728 560.053L539.929 560.053L539.359 569.163C538.446 569.573 537.761 570.392 537.761 571.313C537.761 571.722 537.875 572.132 538.104 572.439C533.311 576.021 527.148 579.092 519.959 581.446C517.905 582.06 515.965 582.777 514.253 583.698L514.253 557.187L514.367 557.187C514.823 557.187 515.166 556.88 515.166 556.471L515.166 556.062C515.166 555.652 514.823 555.345 514.367 555.345L513.34 555.345C513.34 555.14 513.34 554.833 513.34 554.526C513.34 552.581 512.199 550.944 510.487 550.022C509.46 549.408 508.547 548.589 507.862 547.771C507.976 547.668 508.09 547.464 508.09 547.259C508.09 547.054 507.862 546.849 507.634 546.747L507.52 544.29L507.292 544.29L507.063 546.747C506.835 546.849 506.721 547.054 506.721 547.259C506.721 547.464 506.721 547.668 506.949 547.771C506.15 548.692 505.237 549.408 504.21 550.022C502.499 550.944 501.357 552.581 501.357 554.526C501.357 554.833 501.357 555.14 501.472 555.345L500.444 555.345C499.988 555.345 499.646 555.652 499.646 556.062L499.646 556.471C499.646 556.88 499.988 557.187 500.444 557.187L500.559 557.187L500.559 574.076C498.39 568.242 494.054 563.431 488.348 560.361C483.327 557.495 478.99 553.81 475.567 549.613C476.137 548.999 476.594 548.282 476.594 547.361C476.594 546.235 475.795 545.109 474.654 544.7L473.855 534.362C474.311 534.362 474.882 534.464 475.338 534.464C479.789 534.464 483.327 531.496 483.897 527.709C482.756 529.858 480.246 531.393 477.393 531.393C473.398 531.393 470.203 528.528 470.203 524.945C470.203 522.386 471.801 520.134 474.311 519.111C470.089 519.622 466.78 522.796 466.78 526.685ZM389.635 550.125C389.635 550.022 389.864 549.818 389.978 549.818L390.206 549.818C390.32 549.818 390.434 550.022 390.434 550.125L390.434 554.526L389.635 554.526L389.635 550.125ZM388.152 550.125C388.152 550.022 388.266 549.818 388.494 549.818L388.608 549.818C388.837 549.818 388.951 550.022 388.951 550.125L388.951 554.526L388.152 554.526L388.152 550.125ZM386.668 550.125C386.668 550.022 386.782 549.818 387.011 549.818L387.125 549.818C387.353 549.818 387.467 550.022 387.467 550.125L387.467 554.526L386.668 554.526L386.668 550.125ZM385.185 550.125C385.185 550.022 385.299 549.818 385.527 549.818L385.641 549.818C385.755 549.818 385.984 550.022 385.984 550.125L385.984 554.526L385.185 554.526L385.185 550.125ZM383.587 550.125C383.587 550.022 383.815 549.818 383.93 549.818L384.158 549.818C384.272 549.818 384.386 550.022 384.386 550.125L384.386 554.526L383.587 554.526L383.587 550.125ZM504.553 561.282C504.553 559.644 505.808 558.313 507.406 557.904C509.003 558.313 510.145 559.644 510.145 561.282L510.145 567.423L504.553 567.423L504.553 561.282ZM511.172 561.794C511.172 560.463 511.628 559.235 512.199 558.825C512.883 559.235 513.34 560.463 513.34 561.794L513.34 567.423L511.172 567.423L511.172 561.794ZM501.472 561.794C501.472 560.463 501.928 559.235 502.499 558.825C503.183 559.235 503.64 560.463 503.64 561.794L503.64 567.423L501.472 567.423L501.472 561.794ZM585.463 577.045C585.463 577.045 585.463 576.942 585.577 576.942L585.691 576.942C585.805 576.942 585.919 577.045 585.919 577.045L585.919 579.604L585.463 579.604L585.463 577.045ZM584.55 577.045C584.55 577.045 584.664 576.942 584.778 576.942L584.892 576.942C585.006 576.942 585.006 577.045 585.006 577.045L585.006 579.604L584.55 579.604L584.55 577.045ZM583.751 577.045C583.751 577.045 583.751 576.942 583.865 576.942L583.979 576.942C584.093 576.942 584.207 577.045 584.207 577.045L584.207 579.604L583.751 579.604L583.751 577.045ZM582.838 577.045C582.838 577.045 582.952 576.942 583.066 576.942L583.18 576.942L583.295 577.045L583.295 579.604L582.838 579.604L582.838 577.045ZM582.039 577.045C582.039 577.045 582.039 576.942 582.153 576.942L582.267 576.942C582.382 576.942 582.496 577.045 582.496 577.045L582.496 579.604L582.039 579.604L582.039 577.045ZM363.502 583.186C363.502 580.73 365.328 578.785 367.839 578.171C370.235 578.785 372.061 580.73 372.061 583.186L372.061 592.603L363.502 592.603L363.502 583.186ZM373.545 584.107C373.545 581.855 374.229 580.115 375.257 579.501C376.169 580.115 376.854 581.855 376.854 584.107L376.854 592.603L373.545 592.603L373.545 584.107ZM358.709 584.107C358.709 581.855 359.508 580.115 360.421 579.501C361.448 580.115 362.133 581.855 362.133 584.107L362.133 592.603L358.709 592.603L358.709 584.107ZM645.033 601.61C645.033 600.587 645.717 599.768 646.744 599.563C647.771 599.768 648.456 600.587 648.456 601.61L648.456 605.398L645.831 605.398L645.033 605.398L645.033 601.61ZM649.141 601.917C649.141 601.099 649.369 600.28 649.826 600.075C650.168 600.28 650.51 601.099 650.51 601.917L650.51 605.398L649.141 605.398L649.141 601.917ZM643.093 601.917C643.093 601.099 643.435 600.28 643.777 600.075C644.12 600.28 644.462 601.099 644.462 601.917L644.462 605.398L643.093 605.398L643.093 601.917Z" fill="#AD9ACC"/>
</g>
<path d="M603.615 544.162C603.615 548.645 606.947 552.829 611.611 554.024L610.612 568.667C608.946 569.264 607.946 570.758 607.946 572.551C607.946 573.747 608.613 574.643 609.279 575.54C604.615 581.218 598.618 586.298 591.621 590.182C580.293 596.458 572.964 607.515 572.964 620.365C572.964 623.951 573.63 627.536 574.629 630.824L565.301 630.824C565.301 630.226 565.301 629.628 565.301 629.031C565.301 617.376 555.639 607.814 542.645 606.319L541.312 602.136C541.312 601.837 540.979 601.837 540.979 601.837L539.98 589.585C539.647 589.585 539.647 589.585 539.647 589.585L538.98 601.837C538.647 601.837 538.647 601.837 538.314 602.136L536.981 606.319C523.988 607.814 514.326 617.376 514.326 629.031C514.326 631.421 514.659 633.812 515.325 635.904L506.663 635.904L506.663 639.49L510.661 639.49L510.661 657.121L504.664 657.121L504.331 638.294L506.663 638.294L506.663 635.605L503.997 635.605L503.664 613.491L505.33 613.491L505.33 610.503L503.664 610.503L502.998 590.481L504.997 590.481L504.997 588.688L503.997 588.688L503.997 588.091L502.665 588.091L502.665 580.919L503.997 580.919L503.997 580.022L501.998 580.022C502.332 579.723 502.332 579.126 502.332 578.827C502.332 577.034 501.332 575.54 499.999 574.643C499 574.344 498.334 573.448 497.667 572.85L497.667 572.551C497.667 572.253 497.667 571.954 497.334 571.954L497.334 570.161C497.334 570.161 497.334 570.161 497.667 570.161C498.334 570.161 499 569.563 499 568.965C499 569.264 498.334 569.563 498 569.563C497.334 569.563 496.668 568.965 496.668 568.368C496.668 567.77 497.001 567.471 497.334 567.172C496.668 567.471 496.001 568.069 496.001 568.667C496.001 569.264 496.335 569.862 497.001 569.862L497.001 571.954C496.668 571.954 496.668 572.253 496.668 572.551L496.668 572.85C496.001 573.747 495.335 574.344 494.336 574.643C493.003 575.54 492.003 577.034 492.003 578.827C492.003 579.126 492.003 579.723 492.003 580.022L490.337 580.022L490.337 580.919L491.337 580.919L491.337 588.091L490.337 588.091L490.337 588.688L489.338 588.688L489.338 590.481L491.004 590.481L490.671 610.503L489.005 610.503L489.005 613.491L490.671 613.491L490.337 635.605L487.672 635.605L487.672 638.294L490.004 638.294L489.671 657.121L473.679 657.121L473.679 620.365L474.012 620.365C474.678 620.365 475.012 620.066 475.012 619.468L475.012 618.87C475.012 618.273 474.678 617.675 474.012 617.675L472.346 617.675C472.346 617.376 472.346 616.779 472.346 616.48C472.346 613.491 470.68 611.101 468.348 609.607C466.682 608.71 465.35 607.515 464.35 606.319C464.35 606.021 464.683 606.021 464.683 605.722C464.683 605.124 464.35 604.825 464.017 604.825L463.684 601.239L463.351 601.239L463.018 604.825C462.684 604.825 462.351 605.124 462.351 605.722C462.351 606.021 462.684 606.021 462.684 606.319C461.685 607.515 460.352 608.71 458.686 609.607C456.354 611.101 454.688 613.491 454.688 616.48C454.688 616.779 454.688 617.376 454.688 617.675L453.022 617.675C452.356 617.675 452.023 618.273 452.023 618.87L452.023 619.468C452.023 620.066 452.356 620.365 453.022 620.365L453.356 620.365L453.356 657.121L440.695 657.121L440.695 713.301L755.207 713.301L755.207 657.121L747.878 657.121L747.878 586.597L748.544 586.597C749.544 586.597 750.543 585.999 750.543 584.804L750.543 583.907C750.543 583.011 749.544 582.114 748.544 582.114L745.879 582.114C745.879 581.516 745.879 580.62 745.879 580.022C745.879 575.241 743.213 571.057 738.882 568.667C736.217 567.172 733.885 565.379 732.219 562.989C732.552 562.69 732.552 562.391 732.552 562.092C732.552 561.196 732.219 560.897 731.552 560.598L731.219 554.323L730.553 554.323L730.22 560.598C729.553 560.897 729.22 561.196 729.22 562.092C729.22 562.391 729.553 562.69 729.887 562.989C727.888 565.379 725.889 567.172 723.223 568.667C718.892 571.057 715.893 575.241 715.893 580.022C715.893 580.62 716.227 581.516 716.227 582.114L713.561 582.114C712.562 582.114 711.562 583.011 711.562 583.907L711.562 584.804C711.562 585.999 712.562 586.597 713.561 586.597L713.894 586.597L713.894 657.121L702.233 657.121L701.567 629.927L704.566 629.927L704.566 626.341L701.567 626.341L700.901 597.952L702.9 597.952L702.9 594.067L700.901 594.067L700.234 568.069L702.567 568.069L702.567 565.977L701.234 565.977L701.234 565.379L699.901 565.379L699.901 555.817L701.234 555.817L701.234 554.92L698.902 554.92C699.235 554.323 699.235 553.725 699.235 553.127C699.235 551.036 697.902 549.243 695.903 548.047C694.904 547.45 693.904 546.553 692.905 545.657C693.238 545.358 693.238 545.358 693.238 545.059C693.238 544.76 693.238 544.461 692.905 544.461L692.572 542.071C692.905 542.071 692.905 542.071 692.905 542.071C693.904 542.071 694.904 541.473 694.904 540.576C694.571 540.875 694.237 541.174 693.571 541.174C692.572 541.174 691.905 540.576 691.905 539.68C691.905 539.082 692.238 538.783 692.572 538.485C691.905 538.485 690.906 539.381 690.906 540.278C690.906 540.875 691.572 541.772 692.238 541.772L692.238 544.461C691.905 544.461 691.572 544.76 691.572 545.059C691.572 545.358 691.905 545.358 691.905 545.657C691.239 546.553 690.239 547.45 688.907 548.047C686.908 549.243 685.908 551.036 685.908 553.127C685.908 553.725 685.908 554.323 685.908 554.92L683.909 554.92L683.909 555.817L685.242 555.817L685.242 565.379L683.909 565.379L683.909 565.977L682.243 565.977L682.243 568.069L684.909 568.069L684.242 594.067L681.91 594.067L681.91 597.952L684.242 597.952L683.576 626.341L680.244 626.341L680.244 629.927L683.576 629.927L682.91 657.121L674.58 657.121L674.58 613.79L674.914 613.79C675.58 613.79 675.913 613.491 675.913 612.894L675.913 612.296C675.913 611.698 675.58 611.4 674.914 611.4L673.248 611.4C673.581 611.101 673.581 610.503 673.581 610.204C673.581 607.515 671.915 605.124 669.583 603.929C668.25 603.032 666.917 602.136 665.918 600.94C666.251 600.642 666.251 600.343 666.251 600.343C666.251 600.044 665.918 599.745 665.585 599.446L665.252 596.159L664.918 599.446C664.585 599.745 664.252 600.044 664.252 600.343C664.252 600.343 664.252 600.642 664.585 600.94C663.586 602.136 662.253 603.032 660.92 603.929C658.588 605.124 656.922 607.515 656.922 610.204C656.922 610.503 656.922 611.101 657.256 611.4L655.59 611.4C654.923 611.4 654.59 611.698 654.59 612.296L654.59 612.894C654.59 613.491 654.923 613.79 655.59 613.79L655.923 613.79L655.923 630.824L650.259 630.824C651.258 627.537 651.925 623.951 651.925 620.365C651.925 607.515 644.595 596.458 633.267 590.183C626.271 586.298 620.274 581.218 615.609 575.54C616.609 574.643 616.942 573.747 616.942 572.551C616.942 570.758 615.942 569.264 614.277 568.667L613.277 554.621C613.943 554.621 614.61 554.621 615.276 554.621C621.273 554.621 626.271 550.737 626.937 545.358C625.604 548.346 621.94 550.438 618.275 550.438C612.611 550.438 608.28 546.553 608.28 541.473C608.28 538.186 610.612 534.899 613.943 533.703C607.946 534.301 603.615 538.783 603.615 544.162ZM697.236 557.61C697.236 557.311 697.236 557.012 697.569 557.012L697.902 557.012C698.235 557.012 698.569 557.311 698.569 557.61L698.569 565.379L697.236 565.379L697.236 557.61ZM694.571 557.61C694.571 557.311 694.571 557.012 694.904 557.012L695.237 557.012C695.57 557.012 695.903 557.311 695.903 557.61L695.903 565.379L694.571 565.379L694.571 557.61ZM691.905 557.61C691.905 557.311 691.905 557.012 692.238 557.012L692.572 557.012C692.905 557.012 693.238 557.311 693.238 557.61L693.238 565.379L691.905 565.379L691.905 557.61ZM689.24 557.61C689.24 557.311 689.24 557.012 689.573 557.012L689.906 557.012C690.239 557.012 690.573 557.311 690.573 557.61L690.573 565.379L689.24 565.379L689.24 557.61ZM686.574 557.61C686.574 557.311 686.574 557.012 686.908 557.012L687.241 557.012C687.574 557.012 687.907 557.311 687.907 557.61L687.907 565.379L686.574 565.379L686.574 557.61ZM500.666 582.114C500.666 581.815 500.999 581.815 501.332 581.815C501.665 581.815 501.998 581.815 501.998 582.114L501.998 588.091L500.666 588.091L500.666 582.114ZM498.667 582.114C498.667 581.815 499 581.815 499 581.815L499.333 581.815C499.666 581.815 499.666 581.815 499.666 582.114L499.666 588.091L498.667 588.091L498.667 582.114ZM496.668 582.114C496.668 581.815 496.668 581.815 497.001 581.815L497.334 581.815C497.334 581.815 497.667 581.815 497.667 582.114L497.667 588.091L496.668 588.091L496.668 582.114ZM494.669 582.114C494.669 581.815 494.669 581.815 495.002 581.815L495.335 581.815C495.335 581.815 495.668 581.815 495.668 582.114L495.668 588.091L494.669 588.091L494.669 582.114ZM492.336 582.114C492.336 581.815 492.67 581.815 493.003 581.815C493.336 581.815 493.669 581.815 493.669 582.114L493.669 588.091L492.336 588.091L492.336 582.114ZM723.889 596.757C723.889 592.872 726.888 589.585 730.886 588.39C734.884 589.585 737.883 592.872 737.883 596.757L737.883 612.296L723.889 612.296L723.889 596.757ZM740.215 598.251C740.215 594.665 741.547 591.677 743.213 590.78C744.546 591.677 745.879 594.665 745.879 598.251L745.879 612.296L740.215 612.296L740.215 598.251ZM716.227 598.251C716.227 594.665 717.226 591.677 718.892 590.78C720.558 591.677 721.557 594.665 721.557 598.251L721.557 612.296L716.227 612.296L716.227 598.251ZM661.254 619.468C661.254 617.376 662.919 615.583 665.252 614.986C667.584 615.583 669.25 617.376 669.25 619.468L669.25 627.835L661.254 627.835L661.254 619.468ZM670.249 620.365C670.249 618.273 670.915 616.779 671.915 616.181C672.915 616.779 673.581 618.273 673.581 620.365L673.581 627.835L670.249 627.835L670.249 620.365ZM656.922 620.365C656.922 618.273 657.589 616.779 658.588 616.181C659.588 616.779 660.254 618.273 660.254 620.365L660.254 627.835L656.922 627.835L656.922 620.365ZM459.353 626.341C459.353 624.249 461.019 622.158 463.351 621.56C466.016 622.158 467.682 624.249 467.682 626.341L467.682 635.605L459.353 635.605L459.353 626.341ZM469.015 627.238C469.015 625.146 469.681 623.353 470.68 623.054C471.68 623.353 472.346 625.146 472.346 627.238L472.346 635.605L469.015 635.605L469.015 627.238ZM454.688 627.238C454.688 625.146 455.355 623.353 456.354 623.054C457.354 623.353 458.02 625.146 458.02 627.238L458.02 635.605L454.688 635.605L454.688 627.238Z" fill="#434E89"/>
<path d="M26.5751 534.576L25.3793 551.093C23.7053 551.736 22.5095 553.238 22.5095 554.954C22.5095 555.705 22.7487 556.456 23.1074 556.992C16.77 561.925 8.99761 566.215 0.0295088 569.755L0.0294973 800.666L255.919 800.666L255.919 624.667L257.832 624.667L257.832 623.058L253.886 623.058C254.126 622.093 254.365 621.128 254.365 620.055C254.365 615.658 251.256 611.904 246.832 610.51C246.832 610.403 246.832 610.403 246.832 610.295C246.832 608.794 245.755 607.507 244.32 607.078L243.723 605.576C243.842 605.362 243.962 605.255 243.962 605.04C243.962 604.718 243.723 604.397 243.364 604.289L243.005 599.57C242.886 599.57 242.886 599.57 242.886 599.57L242.527 604.289C242.288 604.397 242.049 604.718 242.049 605.04C242.049 605.255 242.049 605.362 242.168 605.576L241.69 607.078C240.135 607.507 239.059 608.794 239.059 610.295C239.059 610.403 239.059 610.403 239.059 610.51C234.635 611.904 231.526 615.658 231.526 620.055C231.526 621.128 231.765 622.093 232.124 623.058L228.178 623.058L228.178 623.166L227.819 623.166L227.819 605.362L227.939 605.362C228.417 605.362 228.895 604.933 228.895 604.504L228.895 604.075C228.895 603.646 228.417 603.217 227.939 603.217L226.743 603.217C226.863 603.002 226.863 602.681 226.863 602.359C226.863 600.214 225.547 598.283 223.634 597.211C222.438 596.567 221.482 595.709 220.645 594.744C220.764 594.637 220.884 594.422 220.884 594.208C220.884 593.886 220.645 593.672 220.406 593.564L220.166 590.883L220.047 590.883L219.808 593.564C219.569 593.672 219.329 593.886 219.329 594.208C219.329 594.422 219.449 594.637 219.569 594.744C218.731 595.709 217.775 596.567 216.579 597.211C214.666 598.283 213.351 600.214 213.351 602.359C213.351 602.681 213.47 603.002 213.47 603.217L212.274 603.217C211.796 603.217 211.437 603.646 211.437 604.075L211.437 604.504C211.437 604.933 211.796 605.362 212.274 605.362L212.514 605.362L212.514 616.73L209.524 616.73C210.242 615.443 210.72 614.049 210.72 612.655C210.72 607.721 205.698 603.431 198.165 600.965C193.262 599.463 189.197 597.318 185.848 594.851C185.968 594.637 186.088 594.422 186.088 594.101C186.088 593.457 185.729 592.921 185.011 592.706L184.653 586.486L184.055 586.486L183.696 592.706C182.979 592.921 182.62 593.457 182.62 594.101C182.62 594.422 182.62 594.637 182.859 594.851C179.511 597.318 175.445 599.356 170.543 600.965C163.01 603.431 157.988 607.721 157.988 612.655C157.988 613.406 158.227 614.264 158.466 615.014L156.314 615.014C157.031 613.084 157.39 610.939 157.39 608.687C157.39 597.747 148.182 588.738 136.345 587.558L134.79 583.483C134.79 583.375 134.671 583.375 134.431 583.268L133.714 571.9C133.594 571.9 133.594 571.9 133.594 571.9C133.475 571.9 133.475 571.9 133.475 571.9L132.638 583.268C132.399 583.375 132.279 583.375 132.279 583.483L130.725 587.558C121.876 588.416 114.582 593.779 111.353 600.965L111.114 588.953L112.43 588.953L112.43 586.807L111.114 586.807L110.756 571.578L112.191 571.578L112.191 570.398L111.353 570.398L111.353 569.969L110.516 569.969L110.516 564.499L111.353 564.499L111.353 563.963L110.038 563.963C110.158 563.641 110.158 563.212 110.158 562.891C110.158 561.604 109.44 560.531 108.364 559.888C107.647 559.459 107.049 559.03 106.57 558.386C106.69 558.386 106.69 558.279 106.69 558.172C106.69 557.957 106.57 557.85 106.451 557.743L106.331 556.348C106.451 556.348 106.451 556.348 106.57 556.348C107.168 556.348 107.647 555.919 107.766 555.49C107.527 555.705 107.168 555.919 106.81 555.919C106.331 555.919 105.853 555.598 105.853 555.061C105.853 554.74 106.092 554.418 106.451 554.203C105.853 554.311 105.375 554.74 105.375 555.276C105.375 555.812 105.733 556.134 106.212 556.348L106.092 557.743C105.973 557.85 105.853 557.957 105.853 558.172C105.853 558.279 105.853 558.386 105.973 558.386C105.494 559.03 104.896 559.459 104.179 559.888C103.103 560.531 102.266 561.604 102.266 562.891C102.266 563.212 102.385 563.641 102.505 563.963L101.19 563.963L101.19 564.499L102.027 564.499L102.027 569.969L101.19 569.969L101.19 570.398L100.353 570.398L100.353 571.578L101.788 571.578L101.429 586.807L100.113 586.807L100.113 588.953L101.429 588.953L101.07 605.576L99.1569 605.576L99.1569 607.721L100.95 607.721L100.831 615.229L94.3739 615.229C96.4067 611.797 97.4828 608.15 97.4828 604.397C97.4828 591.205 84.21 579.729 64.1215 573.294C51.2075 569.111 39.9674 563.534 31.3581 556.992C31.7168 556.456 31.9559 555.705 31.9559 554.954C31.9559 553.238 30.7602 551.736 29.0861 551.093L27.8904 534.576L26.5751 534.576ZM108.962 565.465C108.962 565.25 109.082 565.143 109.321 565.143L109.44 565.143C109.679 565.143 109.799 565.25 109.799 565.465L109.799 569.969L108.962 569.969L108.962 565.465ZM107.408 565.465C107.408 565.25 107.527 565.143 107.766 565.143L107.886 565.143C108.125 565.143 108.245 565.25 108.245 565.465L108.245 569.969L107.408 569.969L107.408 565.465ZM105.853 565.465C105.853 565.25 105.973 565.143 106.212 565.143L106.331 565.143C106.451 565.143 106.69 565.25 106.69 565.465L106.69 569.969L105.853 569.969L105.853 565.465ZM104.299 565.465C104.299 565.25 104.418 565.143 104.657 565.143L104.777 565.143C104.896 565.143 105.136 565.25 105.136 565.465L105.136 569.969L104.299 569.969L104.299 565.465ZM102.744 565.465C102.744 565.25 102.864 565.143 103.103 565.143L103.222 565.143C103.342 565.143 103.581 565.25 103.581 565.465L103.581 569.969L102.744 569.969L102.744 565.465ZM216.938 609.866C216.938 608.043 218.253 606.649 220.166 606.113C221.96 606.649 223.275 608.043 223.275 609.866L223.275 616.838L218.492 616.838L218.492 616.73L216.938 616.73L216.938 609.866ZM224.351 610.51C224.351 608.901 224.83 607.614 225.547 607.185C226.265 607.614 226.743 608.901 226.743 610.51L226.743 616.838L224.351 616.838L224.351 610.51ZM213.47 610.51C213.47 608.901 213.949 607.614 214.666 607.185C215.383 607.614 215.981 608.901 215.981 610.51L215.981 616.73L213.47 616.73L213.47 610.51Z" fill="url(#paint2_linear_3_201)"/>
<path d="M63.8981 558.278C63.8981 562.165 66.7873 565.275 70.5434 566.571L69.6766 578.233C68.5209 578.751 67.3652 580.047 67.3652 581.342C67.3652 582.12 67.943 583.156 68.8098 583.675C64.7648 588.339 60.142 592.486 54.3635 595.596C45.4067 600.779 39.3393 609.59 39.3393 619.956C39.3393 622.806 39.6282 625.657 40.7839 628.507L32.9829 628.507C33.2718 627.989 33.2718 627.471 33.2718 626.953C33.2718 617.623 25.1819 609.849 15.0694 608.812L13.6248 605.184C13.6248 605.184 13.6248 605.184 13.3359 604.925L12.4691 595.077L11.6023 604.925C11.6023 605.184 11.3134 605.184 11.3134 605.184L10.1577 608.812C6.40164 609.071 2.93452 610.367 0.0452545 612.44L0.0452468 770.003L186.692 770.003L186.692 649.498L180.624 649.498L180.624 592.745L180.913 592.745C181.78 592.745 182.647 592.227 182.647 591.449L182.647 590.413C182.647 589.635 181.78 589.117 180.913 589.117L178.891 589.117C178.891 588.599 178.891 588.08 178.891 587.303C178.891 583.416 176.579 580.047 173.112 578.233C171.09 576.937 169.356 575.382 167.912 573.568C168.201 573.568 168.201 573.05 168.201 572.79C168.201 572.272 167.912 571.754 167.334 571.754L167.045 566.83L166.756 566.83L166.467 571.754C165.889 571.754 165.6 572.272 165.6 572.79C165.6 573.05 165.6 573.568 165.889 573.568C164.445 575.382 162.711 576.937 160.689 578.233C157.221 580.047 154.91 583.416 154.91 587.303C154.91 588.08 154.91 588.599 154.91 589.117L152.887 589.117C152.021 589.117 151.154 589.635 151.154 590.413L151.154 591.449C151.154 592.227 152.021 592.745 152.887 592.745L153.176 592.745L153.176 649.498L143.642 649.498L143.064 627.73L145.664 627.73L145.664 624.62L143.064 624.62L142.486 601.815L144.22 601.815L144.22 598.705L142.486 598.705L142.197 577.714L143.931 577.714L143.931 576.159L142.775 576.159L142.775 575.641L141.619 575.641L141.619 567.867L142.775 567.867L142.775 567.089L141.042 567.089C141.33 566.571 141.33 566.312 141.33 565.793C141.33 563.979 140.175 562.424 138.73 561.647C137.863 561.129 136.997 560.351 136.13 559.574C136.419 559.315 136.419 559.315 136.419 559.056C136.419 558.796 136.419 558.796 136.13 558.537L135.841 556.723C136.13 556.723 136.13 556.723 136.13 556.723C136.997 556.723 137.863 556.205 137.863 555.427C137.574 555.946 137.285 556.205 136.708 556.205C135.841 556.205 135.263 555.687 135.263 554.909C135.263 554.391 135.552 553.873 136.13 553.873C135.263 553.873 134.685 554.391 134.685 555.168C134.685 555.946 134.974 556.464 135.841 556.723L135.552 558.537C135.263 558.796 135.263 558.796 135.263 559.056C135.263 559.315 135.263 559.315 135.552 559.574C134.685 560.351 133.818 561.129 132.952 561.647C131.507 562.424 130.351 563.979 130.351 565.793C130.351 566.312 130.351 566.571 130.64 567.089L128.907 567.089L128.907 567.867L130.062 567.867L130.062 575.641L128.907 575.641L128.907 576.159L127.751 576.159L127.751 577.714L129.484 577.714L129.196 598.705L127.462 598.705L127.462 601.815L129.196 601.815L128.618 624.62L126.017 624.62L126.017 627.73L128.618 627.73L128.04 649.498L121.394 649.498L121.394 614.773L121.683 614.773C121.972 614.773 122.55 614.513 122.55 613.995L122.55 613.477C122.55 612.959 121.972 612.699 121.683 612.699L120.528 612.699C120.528 612.44 120.528 612.181 120.528 611.663C120.528 609.59 119.372 607.776 117.35 606.739C116.194 605.961 115.038 605.184 114.46 604.147C114.46 604.147 114.749 603.888 114.749 603.629C114.749 603.37 114.46 603.111 114.171 603.111L113.882 600.26L113.593 600.26L113.593 603.111C113.305 603.111 113.016 603.37 113.016 603.629C113.016 603.888 113.305 604.147 113.305 604.147C112.438 605.184 111.571 605.961 110.415 606.739C108.393 607.776 107.237 609.59 107.237 611.663C107.237 612.181 107.237 612.44 107.237 612.699L106.081 612.699C105.504 612.699 105.215 612.959 105.215 613.477L105.215 613.995C105.215 614.513 105.504 614.773 106.081 614.773L106.37 614.773L106.37 628.507L101.747 628.507C102.614 625.657 103.192 622.806 103.192 619.956C103.192 609.59 97.1246 600.779 87.879 595.596C82.3894 592.486 77.4776 588.339 73.7216 583.675C74.2994 583.156 74.8773 582.12 74.8773 581.342C74.8773 580.047 74.0105 578.751 72.5659 578.233L71.6991 566.83C72.2769 566.83 72.8548 566.83 73.4326 566.83C78.3444 566.83 82.3894 563.72 82.9672 559.574C81.8115 561.906 78.9223 563.461 75.7441 563.461C71.4102 563.461 67.6541 560.351 67.6541 556.464C67.6541 553.613 69.6766 551.022 72.2769 549.985C67.6541 550.504 63.8981 553.873 63.8981 558.278ZM139.597 569.162L139.886 568.903L140.175 568.903C140.464 568.903 140.753 569.162 140.753 569.162L140.753 575.641L139.597 575.641L139.597 569.162ZM137.285 569.162C137.285 569.162 137.574 568.903 137.863 568.903L138.152 568.903C138.441 568.903 138.441 569.162 138.441 569.162L138.441 575.641L137.285 575.641L137.285 569.162ZM135.263 569.162C135.263 569.162 135.552 568.903 135.841 568.903C136.13 568.903 136.419 569.162 136.419 569.162L136.419 575.641L135.263 575.641L135.263 569.162ZM132.952 569.162C132.952 569.162 133.24 568.903 133.529 568.903L133.818 568.903C134.107 568.903 134.107 569.162 134.107 569.162L134.107 575.641L132.952 575.641L132.952 569.162ZM130.929 569.162C130.929 569.162 131.218 568.903 131.507 568.903C131.796 568.903 132.085 569.162 132.085 569.162L132.085 575.641L130.929 575.641L130.929 569.162ZM161.266 600.779C161.266 597.669 163.578 595.077 167.045 594.3C170.223 595.077 172.535 597.669 172.535 600.779L172.535 613.477L161.266 613.477L161.266 600.779ZM174.557 602.074C174.557 599.224 175.424 596.891 176.579 596.114C178.024 596.891 178.891 599.224 178.891 602.074L178.891 613.477L174.557 613.477L174.557 602.074ZM154.91 602.074C154.91 599.224 155.777 596.891 157.221 596.114C158.377 596.891 159.244 599.224 159.244 602.074L159.244 613.477L154.91 613.477L154.91 602.074ZM110.704 619.178C110.704 617.364 112.149 616.068 113.882 615.55C115.616 616.068 117.061 617.364 117.061 619.178L117.061 626.175L110.704 626.175L110.704 619.178ZM117.927 619.956C117.927 618.401 118.505 616.846 119.083 616.587C119.95 616.846 120.528 618.401 120.528 619.956L120.528 626.175L117.927 626.175L117.927 619.956ZM107.237 619.956C107.237 618.401 107.815 616.846 108.393 616.587C109.26 616.846 109.548 618.401 109.548 619.956L109.548 626.175L107.237 626.175L107.237 619.956Z" fill="url(#paint3_linear_3_201)"/>
<path d="M269.221 505.364C269.221 513.83 275.063 521.086 283.603 523.505L281.805 550.112C278.659 550.918 276.861 553.74 276.861 556.562C276.861 558.98 277.76 560.593 279.558 562.205C271.018 572.687 260.232 581.556 247.647 588.812C227.422 599.696 213.938 619.853 213.938 642.831C213.938 649.281 214.837 655.731 217.084 661.778L200.005 661.778C200.005 660.972 200.455 659.762 200.455 658.956C200.455 637.59 182.477 620.256 159.555 617.837L156.858 609.775C156.858 609.775 156.409 609.775 155.959 609.775L154.611 587.602L154.161 587.602L152.364 609.775C151.914 609.775 151.914 609.775 151.914 609.775L148.768 617.837C125.846 620.256 108.317 637.59 108.317 658.956C108.317 662.987 108.767 667.019 110.115 671.05L94.834 671.05L94.834 677.097L102.025 677.097L102.025 708.944L85.3955 708.944L84.4966 664.6L88.9911 664.6L88.9911 659.762L84.4966 659.762L83.5977 619.853L86.2944 619.853L86.2944 614.612L83.5977 614.612L82.6989 578.331L85.845 578.331L85.845 575.105L84.0472 575.105L84.0472 574.299L81.7999 574.299L81.7999 560.996L84.0472 560.996L84.0472 559.787L80.901 559.787C80.901 558.98 81.3505 558.174 81.3505 557.368C81.3505 554.143 79.5527 551.724 76.856 550.112C75.0582 549.305 73.7098 548.096 72.3615 546.483C72.8109 546.483 72.8109 546.08 72.8109 546.08C72.8109 545.677 72.8109 545.274 72.3615 544.871L71.912 541.646C72.3615 541.646 72.3615 541.646 72.3615 541.646C74.1593 541.646 75.0582 540.84 75.5077 539.63C75.0582 540.033 74.1593 540.84 73.2604 540.84C71.9121 540.84 71.0132 539.63 71.0132 538.421C71.0132 537.615 71.4626 536.808 72.3615 536.405C70.5637 536.808 69.6648 538.018 69.6648 539.227C69.6648 540.033 70.5637 541.243 71.4626 541.646L71.4626 544.871C71.0131 545.274 70.5637 545.677 70.5637 546.08L71.0132 546.483C70.1143 548.096 68.3164 549.305 66.9681 550.112C64.2713 551.724 62.4735 554.143 62.4735 557.368C62.4735 558.174 62.4736 558.98 62.9231 559.787L59.7768 559.787L59.7768 560.996L61.5747 560.996L61.5747 574.299L59.7768 574.299L59.7768 575.105L57.5296 575.105L57.5296 578.331L61.1252 578.331L60.2263 614.612L57.0802 614.612L57.0802 619.853L60.2263 619.853L59.3274 659.762L54.8329 659.762L54.8329 664.6L59.3274 664.6L58.4285 708.944L49.889 708.944L49.889 629.931L50.7879 629.931C52.1362 629.931 53.4846 628.722 53.4846 627.109L53.4846 625.9C53.4846 624.287 52.1362 623.078 50.7879 623.078L46.2934 623.078C46.7428 621.868 46.7428 621.062 46.7428 619.853C46.7428 612.596 42.6978 606.146 35.956 602.518C31.911 600.503 28.7649 597.681 26.0682 594.053C26.5176 593.649 26.967 593.246 26.967 592.44C26.967 591.634 26.0681 590.827 25.1692 590.424L24.7198 581.152L23.8209 581.152L22.9219 590.424C22.023 590.827 21.5736 591.634 21.5736 592.44C21.5736 593.246 22.0231 593.649 22.4725 594.053C19.7758 597.681 16.1802 600.503 12.1352 602.518C5.84286 606.146 1.34836 612.596 1.34836 619.853C1.34836 621.062 1.79783 621.868 1.79783 623.078L3.6486e-05 623.078L6.10352e-05 1127L763.166 1127L764.515 710.96L764.515 708.944L760.47 708.944C760.919 707.331 760.919 706.122 760.919 704.51C760.919 698.463 756.874 693.625 751.031 691.609C751.031 691.609 751.031 691.609 751.031 691.206C751.031 689.191 749.233 687.578 747.436 686.772L746.537 684.756L746.986 684.353C746.986 683.547 746.537 683.144 746.087 683.144L745.638 676.694L745.188 683.144C744.739 683.144 744.289 683.547 744.289 684.353L744.289 684.756L743.84 686.772C741.593 687.578 740.244 689.191 740.244 691.206C740.244 691.609 740.244 691.609 740.244 691.609C734.402 693.625 729.907 698.463 729.907 704.51C729.907 706.122 730.357 707.331 730.806 708.944L725.413 708.944L724.963 708.944L724.963 684.756C725.862 684.756 726.311 683.95 726.311 683.547L726.311 682.741C726.311 682.338 725.862 681.531 724.963 681.531L723.615 681.531C723.615 681.128 723.615 680.725 723.615 680.322C723.615 677.5 721.817 675.081 719.12 673.469C717.322 672.662 715.974 671.453 715.075 670.244C715.075 669.841 715.525 669.841 715.525 669.437C715.525 669.034 715.075 668.631 714.626 668.631L714.626 664.6L714.176 664.6L713.727 668.631C713.727 668.631 713.277 669.034 713.277 669.437C713.277 669.841 713.277 669.841 713.727 670.244C712.379 671.453 711.03 672.662 709.682 673.469C706.985 675.081 705.187 677.5 705.187 680.322C705.187 680.725 705.187 681.128 705.187 681.531L703.839 681.531C702.94 681.531 702.491 682.338 702.491 682.741L702.491 683.547C702.491 683.95 702.94 684.756 703.839 684.756L703.839 700.075L699.794 700.075C700.693 698.463 701.592 696.447 701.592 694.431C701.592 687.981 694.85 681.934 684.513 678.709C677.771 676.291 671.928 673.469 667.434 670.244C667.883 669.841 667.883 669.437 667.883 669.437C667.883 668.228 667.434 667.422 666.535 667.422L666.085 658.956L665.186 658.956L664.737 667.422C663.838 667.422 662.939 668.228 662.939 669.437C662.939 669.437 663.388 669.841 663.388 670.244C658.894 673.469 653.501 676.291 646.759 678.709C636.421 681.934 629.68 687.981 629.68 694.431C629.68 695.641 629.68 696.85 630.129 697.656L626.983 697.656C628.331 695.238 628.781 692.013 628.781 689.191C628.781 674.275 616.196 661.778 600.016 660.166L597.769 654.522C597.769 654.522 597.769 654.522 597.319 654.522L596.42 638.8C596.42 638.8 596.42 638.8 595.971 638.8L595.072 654.522C594.623 654.522 594.623 654.522 594.623 654.522L592.375 660.166C580.24 661.375 570.352 668.631 565.858 678.709L565.408 662.181L567.206 662.181L567.206 659.359L565.408 659.359L564.959 638.397L567.206 638.397L567.206 636.784L565.858 636.784L565.858 636.381L564.509 636.381L564.509 628.722L565.858 628.722L565.858 627.915L564.06 627.915C564.06 627.512 564.06 627.109 564.06 626.706C564.06 624.69 563.161 623.481 561.813 622.675C560.914 621.868 560.015 621.465 559.116 620.659C559.565 620.256 559.565 620.256 559.565 620.256C559.565 619.853 559.565 619.853 559.116 619.45L559.116 617.837C560.015 617.837 560.914 617.031 560.914 616.628C560.464 617.031 560.015 617.031 559.565 617.031C559.116 617.031 558.217 616.628 558.217 615.821C558.217 615.418 558.667 615.015 559.116 615.015C558.217 615.015 557.768 615.418 557.768 616.225C557.768 617.031 558.217 617.434 558.667 617.434L558.667 619.45C558.217 619.853 558.217 619.853 558.217 620.256C558.217 620.256 558.217 620.256 558.667 620.659C557.768 621.465 556.869 621.868 555.97 622.675C554.622 623.481 553.723 624.69 553.723 626.706C553.723 627.109 553.723 627.512 553.723 627.915L551.925 627.915L551.925 628.722L553.273 628.722L553.273 636.381L551.925 636.381L551.925 636.784L550.576 636.784L550.576 638.397L552.824 638.397L552.374 659.359L550.576 659.359L550.576 662.181L552.374 662.181L551.925 684.756L549.228 684.756L549.228 687.578L551.925 687.578L551.475 698.06L542.486 698.06C545.633 693.222 546.981 688.384 546.981 683.144C546.981 665.406 528.553 649.684 501.586 640.815C483.608 635.172 468.327 627.512 456.641 618.643C457.091 617.837 457.54 617.031 457.54 615.821C457.54 613.403 455.742 611.387 453.495 610.581L452.147 588.006L449.9 588.006L448.551 610.581C446.304 611.387 444.506 613.403 444.506 615.821C444.506 617.031 444.956 617.837 445.405 618.643C433.719 627.512 418.438 635.172 400.46 640.815C395.516 642.428 390.572 644.444 386.527 646.459L386.527 581.152L386.977 581.152C387.875 581.152 388.774 580.346 388.774 579.137L388.774 578.331C388.774 577.121 387.875 576.315 386.977 576.315L384.28 576.315C384.28 575.912 384.28 575.105 384.28 574.299C384.28 569.462 381.583 565.43 377.089 563.012C374.841 561.802 372.594 559.787 370.796 557.368C370.796 557.368 371.246 556.965 371.246 556.562C371.246 555.755 370.796 555.352 370.347 554.949L369.897 548.902L368.999 548.902L368.999 554.949C368.1 555.352 367.65 555.755 367.65 556.562C367.65 556.965 368.1 557.368 368.1 557.368C366.302 559.787 364.504 561.802 361.807 563.012C357.313 565.43 354.616 569.462 354.616 574.299C354.616 575.105 354.616 575.912 354.616 576.315L352.369 576.315C351.021 576.315 350.122 577.121 350.122 578.331L350.122 579.137C350.122 580.346 351.021 581.152 352.369 581.152L352.369 622.675C347.425 608.162 336.638 596.471 322.256 588.812C310.121 581.556 299.334 572.687 290.794 562.205C292.143 560.593 293.491 558.98 293.491 556.562C293.491 553.74 291.244 550.918 288.547 550.112L286.3 524.311C287.648 524.311 288.996 524.714 290.345 524.714C301.132 524.714 310.121 517.458 311.469 508.186C308.323 513.427 302.48 517.055 295.289 517.055C285.401 517.055 277.311 509.799 277.311 500.93C277.311 494.883 281.356 489.239 287.648 486.82C276.861 488.03 269.221 495.689 269.221 505.364ZM78.2044 563.415C78.2044 563.012 78.6537 562.608 79.1032 562.608L79.5527 562.608C80.0022 562.608 80.4516 563.012 80.4516 563.415L80.4516 574.299L78.2044 574.299L78.2044 563.415ZM74.6087 563.415C74.6087 563.012 75.0582 562.608 75.5077 562.608C75.9571 562.608 76.4065 563.012 76.4065 563.415L76.4065 574.299L74.6087 574.299L74.6087 563.415ZM71.0132 563.415C71.0132 563.012 71.0131 562.608 71.4626 562.608L71.912 562.608C72.3615 562.608 72.8109 563.012 72.8109 563.415L72.8109 574.299L71.0132 574.299L71.0132 563.415ZM66.9681 563.415C66.9681 563.012 67.4176 562.608 67.867 562.608L68.3164 562.608C68.7659 562.608 69.2154 563.012 69.2154 563.415L69.2154 574.299L66.9681 574.299L66.9681 563.415ZM63.3725 563.415C63.3725 563.012 63.8219 562.608 64.2713 562.608L64.7208 562.608C65.1702 562.608 65.1703 563.012 65.1703 563.415L65.1703 574.299L63.3725 574.299L63.3725 563.415ZM362.706 590.827C362.706 587.199 365.403 583.571 369.448 582.765C373.493 583.571 376.19 587.199 376.19 590.827L376.19 606.146L362.706 606.146L362.706 590.827ZM378.886 592.44C378.886 588.812 379.785 585.99 381.583 585.184C382.932 585.99 384.28 588.812 384.28 592.44L384.28 606.146L378.886 606.146L378.886 592.44ZM354.616 592.44C354.616 588.812 355.965 585.99 357.313 585.184C359.111 585.99 360.01 588.812 360.01 592.44L360.01 606.146L354.616 606.146L354.616 592.44ZM562.712 629.931C562.712 629.931 562.712 629.528 563.161 629.528C563.611 629.528 563.611 629.931 563.611 629.931L563.611 636.381L562.712 636.381L562.712 629.931ZM560.464 629.931C560.464 629.931 560.464 629.528 560.914 629.528C561.363 629.528 561.363 629.931 561.363 629.931L561.363 636.381L560.464 636.381L560.464 629.931ZM558.217 629.931L558.667 629.528L559.116 629.528L559.565 629.931L559.565 636.381L558.217 636.381L558.217 629.931ZM555.97 629.931C555.97 629.931 556.419 629.528 556.869 629.528C557.318 629.528 557.318 629.931 557.318 629.931L557.318 636.381L555.97 636.381L555.97 629.931ZM554.172 629.931C554.172 629.931 554.172 629.528 554.622 629.528C555.071 629.528 555.071 629.931 555.071 629.931L555.071 636.381L554.172 636.381L554.172 629.931ZM13.4835 645.25C13.4835 639.203 17.978 634.365 24.2703 632.753C30.1132 634.365 34.6076 639.203 34.6076 645.25L34.6076 668.631L13.4835 668.631L13.4835 645.25ZM38.2033 647.265C38.2033 642.025 40.0011 637.59 42.6978 635.978C44.945 637.59 46.7428 642.025 46.7428 647.265L46.7428 668.631L38.2033 668.631L38.2033 647.265ZM1.79783 647.265C1.79783 642.025 3.59562 637.59 5.84287 635.978C8.09012 637.59 9.88792 642.025 9.88792 647.265L9.88792 668.631L1.79783 668.631L1.79783 647.265ZM710.131 690.803C710.131 688.384 711.929 686.369 714.176 685.563C716.873 686.369 718.671 688.384 718.671 690.803L718.671 700.075L711.929 700.075L710.131 700.075L710.131 690.803ZM720.019 691.609C720.019 689.594 720.918 687.578 721.817 687.175C722.716 687.578 723.615 689.594 723.615 691.609L723.615 700.075L720.019 700.075L720.019 691.609ZM705.187 691.609C705.187 689.594 706.086 687.578 706.985 687.175C707.884 687.578 708.783 689.594 708.783 691.609L708.783 700.075L705.187 700.075L705.187 691.609Z" fill="#5D679F"/>
<defs>
<linearGradient id="paint0_linear_3_201" x1="688.736" y1="286.571" x2="688.736" y2="728.76" gradientUnits="userSpaceOnUse">
<stop stop-color="#CC7E3B"/>
<stop offset="1" stop-color="#F0E266"/>
</linearGradient>
<linearGradient id="paint1_linear_3_201" x1="225.082" y1="554.086" x2="225.082" y2="633.313" gradientUnits="userSpaceOnUse">
<stop stop-color="#D1D8DB"/>
<stop offset="1" stop-color="white"/>
</linearGradient>
<linearGradient id="paint2_linear_3_201" x1="96.5791" y1="555.276" x2="96.5791" y2="662.527" gradientUnits="userSpaceOnUse">
<stop stop-color="#A3B6BC"/>
<stop offset="0.67" stop-color="#B4C2C5"/>
<stop offset="1" stop-color="#D8E7EB"/>
</linearGradient>
<linearGradient id="paint3_linear_3_201" x1="59.4714" y1="592.486" x2="59.4714" y2="851.635" gradientUnits="userSpaceOnUse">
<stop stop-color="#004458"/>
<stop offset="0.04" stop-color="#004458"/>
<stop offset="0.63" stop-color="#0086AD"/>
<stop offset="1" stop-color="#002C45"/>
</linearGradient>
</defs>
</svg>
